<svg width="114" height="60" viewBox="0 0 114 60" fill="none" xmlns="http://www.w3.org/2000/svg">
<g filter="url(#filter0_dn_619_926)">
<rect x="17.5" y="7" width="79.5" height="43" rx="21.5" fill="url(#paint0_linear_619_926)" shape-rendering="crispEdges"/>
<rect x="17.5" y="7" width="79.5" height="43" rx="21.5" fill="white" fill-opacity="0.05" shape-rendering="crispEdges"/>
<rect x="18" y="7.5" width="78.5" height="42" rx="21" stroke="url(#paint1_linear_619_926)" shape-rendering="crispEdges"/>
<path d="M45.848 35.5L50.548 29.38L50.508 30.72L46.028 24.82H48.808L51.948 29.02H50.888L54.048 24.82H56.748L52.228 30.72L52.248 29.38L56.928 35.5H54.108L50.808 31.04L51.848 31.18L48.608 35.5H45.848ZM57.8914 35.5V33.76L63.4514 28.48C63.9181 28.04 64.2647 27.6533 64.4914 27.32C64.7181 26.9867 64.8647 26.68 64.9314 26.4C65.0114 26.1067 65.0514 25.8333 65.0514 25.58C65.0514 24.94 64.8314 24.4467 64.3914 24.1C63.9514 23.74 63.3047 23.56 62.4514 23.56C61.7714 23.56 61.1514 23.68 60.5914 23.92C60.0447 24.16 59.5714 24.5267 59.1714 25.02L57.3514 23.62C57.8981 22.8867 58.6314 22.32 59.5514 21.92C60.4847 21.5067 61.5247 21.3 62.6714 21.3C63.6847 21.3 64.5647 21.4667 65.3114 21.8C66.0714 22.12 66.6514 22.58 67.0514 23.18C67.4647 23.78 67.6714 24.4933 67.6714 25.32C67.6714 25.7733 67.6114 26.2267 67.4914 26.68C67.3714 27.12 67.1447 27.5867 66.8114 28.08C66.4781 28.5733 65.9914 29.1267 65.3514 29.74L60.5714 34.28L60.0314 33.3H68.2114V35.5H57.8914Z" fill="#A1A1A1" fill-opacity="0.5"/>
</g>
<defs>
<filter id="filter0_dn_619_926" x="0.5" y="0" width="113.5" height="77" filterUnits="userSpaceOnUse" color-interpolation-filters="sRGB">
<feFlood flood-opacity="0" result="BackgroundImageFix"/>
<feColorMatrix in="SourceAlpha" type="matrix" values="0 0 0 0 0 0 0 0 0 0 0 0 0 0 0 0 0 0 127 0" result="hardAlpha"/>
<feOffset dy="10"/>
<feGaussianBlur stdDeviation="8.5"/>
<feComposite in2="hardAlpha" operator="out"/>
<feColorMatrix type="matrix" values="0 0 0 0 0.0901961 0 0 0 0 0.0862745 0 0 0 0 0.0862745 0 0 0 0.22 0"/>
<feBlend mode="normal" in2="BackgroundImageFix" result="effect1_dropShadow_619_926"/>
<feBlend mode="normal" in="SourceGraphic" in2="BackgroundImageFix" result="shape"/>
<feTurbulence type="fractalNoise" baseFrequency="1.25 1.25" stitchTiles="stitch" numOctaves="3" result="noise" seed="2392" />
<feColorMatrix in="noise" type="luminanceToAlpha" result="alphaNoise" />
<feComponentTransfer in="alphaNoise" result="coloredNoise1">
<feFuncA type="discrete" tableValues="1 1 1 1 1 1 1 1 1 1 1 1 1 1 1 1 1 1 1 1 1 1 1 1 1 1 1 1 1 1 1 1 1 1 1 1 1 1 1 1 1 1 1 1 1 1 1 1 1 1 1 0 0 0 0 0 0 0 0 0 0 0 0 0 0 0 0 0 0 0 0 0 0 0 0 0 0 0 0 0 0 0 0 0 0 0 0 0 0 0 0 0 0 0 0 0 0 0 0 0 "/>
</feComponentTransfer>
<feComposite operator="in" in2="shape" in="coloredNoise1" result="noise1Clipped" />
<feFlood flood-color="rgba(0, 0, 0, 0.1)" result="color1Flood" />
<feComposite operator="in" in2="noise1Clipped" in="color1Flood" result="color1" />
<feMerge result="effect2_noise_619_926">
<feMergeNode in="shape" />
<feMergeNode in="color1" />
</feMerge>
<feBlend mode="normal" in="effect2_noise_619_926" in2="effect1_dropShadow_619_926" result="effect2_noise_619_926"/>
</filter>
<linearGradient id="paint0_linear_619_926" x1="17.5" y1="28.5" x2="97" y2="28.5" gradientUnits="userSpaceOnUse">
<stop stop-color="#201D1D"/>
<stop offset="1" stop-color="#222020"/>
</linearGradient>
<linearGradient id="paint1_linear_619_926" x1="17.5" y1="28.5" x2="97" y2="28.5" gradientUnits="userSpaceOnUse">
<stop stop-color="#242323"/>
<stop offset="1" stop-color="#363333"/>
</linearGradient>
</defs>
</svg>
