<svg width="114" height="60" viewBox="0 0 114 60" fill="none" xmlns="http://www.w3.org/2000/svg">
<g filter="url(#filter0_dn_619_925)">
<rect x="17" y="7" width="79.5" height="43" rx="21.5" fill="url(#paint0_linear_619_925)" shape-rendering="crispEdges"/>
<rect x="17" y="7" width="79.5" height="43" rx="21.5" fill="white" fill-opacity="0.05" shape-rendering="crispEdges"/>
<rect x="17.5" y="7.5" width="78.5" height="42" rx="21" stroke="url(#paint1_linear_619_925)" shape-rendering="crispEdges"/>
<path d="M45.75 30.718C47.0756 30.7194 48.3468 31.2464 49.2842 32.1838C50.2215 33.1212 50.7486 34.3924 50.75 35.718C50.75 36.7068 50.4565 37.6732 49.9072 38.4953C49.3578 39.3176 48.5767 39.9587 47.6631 40.3371C46.7495 40.7155 45.7442 40.8142 44.7744 40.6213C43.8046 40.4284 42.914 39.9523 42.2148 39.2531C41.5156 38.5539 41.0387 37.6634 40.8457 36.6936C40.6528 35.7237 40.7524 34.7176 41.1309 33.8039C41.5093 32.8907 42.1498 32.1101 42.9717 31.5608C43.7939 31.0114 44.7611 30.718 45.75 30.718ZM59.751 20.2746C61.0765 20.2762 62.3478 20.804 63.2852 21.7414C64.2225 22.679 64.7502 23.9507 64.752 25.2766V35.2805C64.7504 36.6065 64.2226 37.878 63.2852 38.8156C62.3477 39.7533 61.0767 40.2809 59.751 40.2824H53.751C52.9377 40.2815 52.1452 40.0812 51.4375 39.7112C53.6403 34.5507 51.003 31.463 48.75 30.1662V25.2766C48.7517 23.9507 49.2795 22.679 50.2168 21.7414C51.1542 20.804 52.4255 20.2762 53.751 20.2746H59.751ZM60.5303 16.5305C61.5035 16.2125 62.5507 16.1997 63.5312 16.4944L69.2178 18.2414C70.473 18.6315 71.526 19.4981 72.1494 20.6555C72.7728 21.813 72.9177 23.1697 72.5527 24.4328L69.1396 34.8362C68.9244 35.5597 68.5459 36.2247 68.0342 36.7795C67.5225 37.3343 66.8902 37.7644 66.1865 38.0373C66.5602 37.1664 66.7529 36.2283 66.752 35.2805V25.2766C66.7497 23.4202 66.0116 21.64 64.6992 20.3274C63.3868 19.0147 61.607 18.2767 59.751 18.2746H58.0859C58.7035 17.4575 59.5568 16.8486 60.5303 16.5305ZM45.75 33.634C45.6395 33.634 45.5332 33.678 45.4551 33.7561C45.377 33.8342 45.333 33.9405 45.333 34.051V35.301H44.083C43.9727 35.3011 43.8671 35.3451 43.7891 35.4231C43.7109 35.5012 43.667 35.6075 43.667 35.718C43.667 35.8284 43.711 35.9348 43.7891 36.0129C43.8671 36.0907 43.9728 36.1339 44.083 36.134H45.333V37.384C45.333 37.4944 45.3771 37.6008 45.4551 37.6789C45.5332 37.7571 45.6395 37.801 45.75 37.801C45.8605 37.801 45.9668 37.7571 46.0449 37.6789C46.1229 37.6008 46.167 37.4944 46.167 37.384V36.134H47.417C47.5272 36.1339 47.6329 36.0907 47.7109 36.0129C47.789 35.9348 47.833 35.8284 47.833 35.718C47.833 35.6075 47.7891 35.5012 47.7109 35.4231C47.6329 35.3451 47.5273 35.3011 47.417 35.301H46.167V34.051C46.167 33.9405 46.123 33.8342 46.0449 33.7561C45.9668 33.678 45.8605 33.634 45.75 33.634ZM58.751 27.2776C58.2206 27.2776 57.712 27.4885 57.3369 27.8635C56.9618 28.2387 56.751 28.748 56.751 29.2785C56.7509 28.748 56.5401 28.2387 56.165 27.8635C55.79 27.4884 55.2813 27.2776 54.751 27.2776C54.2205 27.2776 53.711 27.4883 53.3359 27.8635C52.9609 28.2387 52.75 28.748 52.75 29.2785C52.7501 30.729 54.2948 32.6711 55.4648 33.6584C55.8243 33.9625 56.2802 34.1291 56.751 34.1291C57.2218 34.1291 57.6776 33.9626 58.0371 33.6584C59.2072 32.6711 60.7509 30.729 60.751 29.2785C60.7509 28.748 60.5401 28.2387 60.165 27.8635C59.79 27.4885 59.2813 27.2776 58.751 27.2776Z" fill="#A1A1A1" fill-opacity="0.5"/>
</g>
<defs>
<filter id="filter0_dn_619_925" x="0" y="0" width="113.5" height="77" filterUnits="userSpaceOnUse" color-interpolation-filters="sRGB">
<feFlood flood-opacity="0" result="BackgroundImageFix"/>
<feColorMatrix in="SourceAlpha" type="matrix" values="0 0 0 0 0 0 0 0 0 0 0 0 0 0 0 0 0 0 127 0" result="hardAlpha"/>
<feOffset dy="10"/>
<feGaussianBlur stdDeviation="8.5"/>
<feComposite in2="hardAlpha" operator="out"/>
<feColorMatrix type="matrix" values="0 0 0 0 0.0901961 0 0 0 0 0.0862745 0 0 0 0 0.0862745 0 0 0 0.22 0"/>
<feBlend mode="normal" in2="BackgroundImageFix" result="effect1_dropShadow_619_925"/>
<feBlend mode="normal" in="SourceGraphic" in2="BackgroundImageFix" result="shape"/>
<feTurbulence type="fractalNoise" baseFrequency="1.25 1.25" stitchTiles="stitch" numOctaves="3" result="noise" seed="2392" />
<feColorMatrix in="noise" type="luminanceToAlpha" result="alphaNoise" />
<feComponentTransfer in="alphaNoise" result="coloredNoise1">
<feFuncA type="discrete" tableValues="1 1 1 1 1 1 1 1 1 1 1 1 1 1 1 1 1 1 1 1 1 1 1 1 1 1 1 1 1 1 1 1 1 1 1 1 1 1 1 1 1 1 1 1 1 1 1 1 1 1 1 0 0 0 0 0 0 0 0 0 0 0 0 0 0 0 0 0 0 0 0 0 0 0 0 0 0 0 0 0 0 0 0 0 0 0 0 0 0 0 0 0 0 0 0 0 0 0 0 0 "/>
</feComponentTransfer>
<feComposite operator="in" in2="shape" in="coloredNoise1" result="noise1Clipped" />
<feFlood flood-color="rgba(0, 0, 0, 0.1)" result="color1Flood" />
<feComposite operator="in" in2="noise1Clipped" in="color1Flood" result="color1" />
<feMerge result="effect2_noise_619_925">
<feMergeNode in="shape" />
<feMergeNode in="color1" />
</feMerge>
<feBlend mode="normal" in="effect2_noise_619_925" in2="effect1_dropShadow_619_925" result="effect2_noise_619_925"/>
</filter>
<linearGradient id="paint0_linear_619_925" x1="17" y1="28.5" x2="96.5" y2="28.5" gradientUnits="userSpaceOnUse">
<stop stop-color="#201D1D"/>
<stop offset="1" stop-color="#222020"/>
</linearGradient>
<linearGradient id="paint1_linear_619_925" x1="17" y1="28.5" x2="96.5" y2="28.5" gradientUnits="userSpaceOnUse">
<stop stop-color="#242323"/>
<stop offset="1" stop-color="#363333"/>
</linearGradient>
</defs>
</svg>
