<svg width="107" height="60" viewBox="0 0 107 60" fill="none" xmlns="http://www.w3.org/2000/svg">
<g filter="url(#filter0_dn_619_924)">
<rect x="17.5" y="7" width="79.5" height="43" rx="21.5" fill="url(#paint0_linear_619_924)" shape-rendering="crispEdges"/>
<rect x="17.5" y="7" width="79.5" height="43" rx="21.5" fill="white" fill-opacity="0.05" shape-rendering="crispEdges"/>
<rect x="18" y="7.5" width="78.5" height="42" rx="21" stroke="url(#paint1_linear_619_924)" shape-rendering="crispEdges"/>
<path d="M66.4383 20.6251C65.7138 20.6251 65.1257 21.2131 65.1257 21.9377V27.6254C65.1257 28.1084 64.7337 28.5004 64.2507 28.5004C63.7677 28.5004 63.3756 28.1084 63.3756 27.6254V20.1876C63.3756 19.4631 62.7876 18.875 62.0631 18.875C61.3385 18.875 60.7505 19.4631 60.7505 20.1876V27.6254C60.7505 28.1084 60.3585 28.5004 59.8755 28.5004C59.3924 28.5004 59.0004 28.1084 59.0004 27.6254V19.3126C59.0004 18.588 58.4124 18 57.6878 18C56.9633 18 56.3753 18.588 56.3753 19.3126V27.6254C56.3753 28.1084 55.9832 28.5004 55.5002 28.5004C55.0172 28.5004 54.6252 28.1084 54.6252 27.6254V21.1326C54.6252 20.479 54.178 19.8726 53.5331 19.7676C52.7106 19.6337 52 20.2646 52 21.0618V32.1345L49.7205 29.8156C49.6435 29.7386 49.5105 29.6397 49.3346 29.5242C48.597 29.113 47.6248 29.2757 47.0735 30.0151C46.545 30.7239 46.6911 31.7346 47.315 32.3602L50.3978 35.541C52.5408 37.7522 55.488 39 58.5664 39H60.7496C64.6156 39 67.75 35.8656 67.75 31.9997V21.9377C67.75 21.2131 67.1628 20.6251 66.4383 20.6251Z" fill="#A1A1A1" fill-opacity="0.5"/>
</g>
<defs>
<filter id="filter0_dn_619_924" x="0.5" y="0" width="113.5" height="77" filterUnits="userSpaceOnUse" color-interpolation-filters="sRGB">
<feFlood flood-opacity="0" result="BackgroundImageFix"/>
<feColorMatrix in="SourceAlpha" type="matrix" values="0 0 0 0 0 0 0 0 0 0 0 0 0 0 0 0 0 0 127 0" result="hardAlpha"/>
<feOffset dy="10"/>
<feGaussianBlur stdDeviation="8.5"/>
<feComposite in2="hardAlpha" operator="out"/>
<feColorMatrix type="matrix" values="0 0 0 0 0.0901961 0 0 0 0 0.0862745 0 0 0 0 0.0862745 0 0 0 0.22 0"/>
<feBlend mode="normal" in2="BackgroundImageFix" result="effect1_dropShadow_619_924"/>
<feBlend mode="normal" in="SourceGraphic" in2="BackgroundImageFix" result="shape"/>
<feTurbulence type="fractalNoise" baseFrequency="1.25 1.25" stitchTiles="stitch" numOctaves="3" result="noise" seed="2392" />
<feColorMatrix in="noise" type="luminanceToAlpha" result="alphaNoise" />
<feComponentTransfer in="alphaNoise" result="coloredNoise1">
<feFuncA type="discrete" tableValues="1 1 1 1 1 1 1 1 1 1 1 1 1 1 1 1 1 1 1 1 1 1 1 1 1 1 1 1 1 1 1 1 1 1 1 1 1 1 1 1 1 1 1 1 1 1 1 1 1 1 1 0 0 0 0 0 0 0 0 0 0 0 0 0 0 0 0 0 0 0 0 0 0 0 0 0 0 0 0 0 0 0 0 0 0 0 0 0 0 0 0 0 0 0 0 0 0 0 0 0 "/>
</feComponentTransfer>
<feComposite operator="in" in2="shape" in="coloredNoise1" result="noise1Clipped" />
<feFlood flood-color="rgba(0, 0, 0, 0.1)" result="color1Flood" />
<feComposite operator="in" in2="noise1Clipped" in="color1Flood" result="color1" />
<feMerge result="effect2_noise_619_924">
<feMergeNode in="shape" />
<feMergeNode in="color1" />
</feMerge>
<feBlend mode="normal" in="effect2_noise_619_924" in2="effect1_dropShadow_619_924" result="effect2_noise_619_924"/>
</filter>
<linearGradient id="paint0_linear_619_924" x1="17.5" y1="28.5" x2="97" y2="28.5" gradientUnits="userSpaceOnUse">
<stop stop-color="#201D1D"/>
<stop offset="1" stop-color="#222020"/>
</linearGradient>
<linearGradient id="paint1_linear_619_924" x1="17.5" y1="28.5" x2="97" y2="28.5" gradientUnits="userSpaceOnUse">
<stop stop-color="#242323"/>
<stop offset="1" stop-color="#363333"/>
</linearGradient>
</defs>
</svg>
