<svg width="107" height="60" viewBox="0 0 107 60" fill="none" xmlns="http://www.w3.org/2000/svg">
<g filter="url(#filter0_dn_619_927)">
<rect x="10" y="7" width="79.5" height="43" rx="21.5" fill="url(#paint0_linear_619_927)" shape-rendering="crispEdges"/>
<rect x="10" y="7" width="79.5" height="43" rx="21.5" fill="white" fill-opacity="0.05" shape-rendering="crispEdges"/>
<rect x="10.5" y="7.5" width="78.5" height="42" rx="21" stroke="url(#paint1_linear_619_927)" shape-rendering="crispEdges"/>
<path d="M39.1387 20C41.1298 20 42.75 21.5891 42.75 23.542V33.458C42.75 35.4109 41.1298 37 39.1387 37H33.3613C31.3702 37 29.75 35.4109 29.75 33.458V23.542C29.75 21.5891 31.3702 20 33.3613 20H39.1387ZM66.1387 20C68.1298 20 69.75 21.5891 69.75 23.542V33.458C69.75 35.4109 68.1298 37 66.1387 37H60.3613C58.3702 37 56.75 35.4109 56.75 33.458V23.542C56.75 21.5891 58.3702 20 60.3613 20H66.1387ZM63.251 25.667C63.251 25.667 60.3627 27.5555 60.3623 29.208C60.3623 29.9907 61.0086 30.625 61.8066 30.625C62.2093 30.6249 62.5729 30.4622 62.835 30.2012C62.6949 30.6663 62.5086 31.1037 62.2588 31.4854C62.1012 31.726 62.2606 32.0408 62.5527 32.041H63.9473C64.239 32.041 64.3992 31.7269 64.2412 31.4854C63.9914 31.1044 63.8051 30.6664 63.665 30.2012C63.9272 30.4625 64.2924 30.625 64.6953 30.625C65.4933 30.6249 66.1396 29.9907 66.1396 29.208C66.1393 27.5657 63.2861 25.69 63.251 25.667ZM46.624 26.124C46.7857 25.9599 47.0492 25.9587 47.2129 26.1211C47.3762 26.2832 47.3769 26.5462 47.2148 26.71L46.1914 27.7432C46.0664 27.8694 46.1554 28.0838 46.333 28.084H47.25C48.1924 28.084 49.0293 28.5347 49.5625 29.2305C49.6543 29.3503 49.8457 29.3503 49.9375 29.2305C50.4707 28.5347 51.3077 28.084 52.25 28.084H53.167C53.3446 28.0838 53.4336 27.8694 53.3086 27.7432L52.2852 26.71C52.1233 26.5462 52.1248 26.2831 52.2881 26.1211C52.4519 25.9593 52.7154 25.9604 52.877 26.124L54.4043 27.6641C54.6267 27.8861 54.7499 28.1839 54.75 28.5C54.75 28.816 54.6268 29.1136 54.4033 29.3369L52.876 30.877C52.7947 30.959 52.6872 31 52.5801 31C52.4743 31 52.3684 30.9593 52.2871 30.8789C52.1238 30.7168 52.1221 30.4538 52.2842 30.29L53.3076 29.2578C53.4327 29.1317 53.3435 28.9173 53.166 28.917H52.249C51.1005 28.9171 50.1661 29.8515 50.166 31V31.7998C50.166 31.9103 50.0763 32 49.9658 32H49.5332C49.4227 32 49.333 31.9103 49.333 31.7998V31C49.3329 29.8514 48.3977 28.917 47.249 28.917H46.333C46.1555 28.9173 46.0664 29.1317 46.1914 29.2578L47.2148 30.29C47.3769 30.4538 47.3752 30.7168 47.2119 30.8789C47.1307 30.9593 47.0248 31 46.9189 31C46.8119 31 46.7043 30.959 46.623 30.877L45.0957 29.3359C44.8732 29.1139 44.75 28.8162 44.75 28.5C44.7501 28.1839 44.873 27.8863 45.0967 27.6631L46.624 26.124ZM36.7002 25.5898C36.4814 25.2831 36.0186 25.2831 35.7998 25.5898L34.083 27.9951C33.8663 28.2983 33.8663 28.702 34.083 29.0059L35.7998 31.4111C36.0187 31.7177 36.4814 31.7178 36.7002 31.4111L38.417 29.0059C38.6335 28.7028 38.6335 28.2989 38.417 27.9951L36.7002 25.5898Z" fill="#A1A1A1" fill-opacity="0.5"/>
</g>
<defs>
<filter id="filter0_dn_619_927" x="-7" y="0" width="113.5" height="77" filterUnits="userSpaceOnUse" color-interpolation-filters="sRGB">
<feFlood flood-opacity="0" result="BackgroundImageFix"/>
<feColorMatrix in="SourceAlpha" type="matrix" values="0 0 0 0 0 0 0 0 0 0 0 0 0 0 0 0 0 0 127 0" result="hardAlpha"/>
<feOffset dy="10"/>
<feGaussianBlur stdDeviation="8.5"/>
<feComposite in2="hardAlpha" operator="out"/>
<feColorMatrix type="matrix" values="0 0 0 0 0.0901961 0 0 0 0 0.0862745 0 0 0 0 0.0862745 0 0 0 0.22 0"/>
<feBlend mode="normal" in2="BackgroundImageFix" result="effect1_dropShadow_619_927"/>
<feBlend mode="normal" in="SourceGraphic" in2="BackgroundImageFix" result="shape"/>
<feTurbulence type="fractalNoise" baseFrequency="1.25 1.25" stitchTiles="stitch" numOctaves="3" result="noise" seed="2392" />
<feColorMatrix in="noise" type="luminanceToAlpha" result="alphaNoise" />
<feComponentTransfer in="alphaNoise" result="coloredNoise1">
<feFuncA type="discrete" tableValues="1 1 1 1 1 1 1 1 1 1 1 1 1 1 1 1 1 1 1 1 1 1 1 1 1 1 1 1 1 1 1 1 1 1 1 1 1 1 1 1 1 1 1 1 1 1 1 1 1 1 1 0 0 0 0 0 0 0 0 0 0 0 0 0 0 0 0 0 0 0 0 0 0 0 0 0 0 0 0 0 0 0 0 0 0 0 0 0 0 0 0 0 0 0 0 0 0 0 0 0 "/>
</feComponentTransfer>
<feComposite operator="in" in2="shape" in="coloredNoise1" result="noise1Clipped" />
<feFlood flood-color="rgba(0, 0, 0, 0.1)" result="color1Flood" />
<feComposite operator="in" in2="noise1Clipped" in="color1Flood" result="color1" />
<feMerge result="effect2_noise_619_927">
<feMergeNode in="shape" />
<feMergeNode in="color1" />
</feMerge>
<feBlend mode="normal" in="effect2_noise_619_927" in2="effect1_dropShadow_619_927" result="effect2_noise_619_927"/>
</filter>
<linearGradient id="paint0_linear_619_927" x1="10" y1="28.5" x2="89.5" y2="28.5" gradientUnits="userSpaceOnUse">
<stop stop-color="#201D1D"/>
<stop offset="1" stop-color="#222020"/>
</linearGradient>
<linearGradient id="paint1_linear_619_927" x1="10" y1="28.5" x2="89.5" y2="28.5" gradientUnits="userSpaceOnUse">
<stop stop-color="#242323"/>
<stop offset="1" stop-color="#363333"/>
</linearGradient>
</defs>
</svg>
