<svg width="12" height="12" viewBox="0 0 12 12" fill="none" xmlns="http://www.w3.org/2000/svg">
<path d="M5.70264 0.117065C6.45452 0.117259 7.06396 0.727442 7.06396 1.47937V4.20203H9.7876C10.5396 4.20206 11.1489 4.81231 11.1489 5.56433C11.1488 6.31628 10.5396 6.92562 9.7876 6.92566H7.06396V9.64929C7.06396 10.4012 6.45452 11.0104 5.70264 11.0106C4.95059 11.0106 4.34034 10.4013 4.34033 9.64929V6.92566H1.61768C0.865687 6.92566 0.255466 6.3163 0.255371 5.56433C0.255371 4.81228 0.865628 4.20203 1.61768 4.20203H4.34033V1.47937C4.34033 0.727323 4.95059 0.117065 5.70264 0.117065Z" fill="#7B7B7B"/>
</svg>
