<svg width="21" height="21" viewBox="0 0 21 21" fill="none" xmlns="http://www.w3.org/2000/svg">
<path d="M5.67423 8.58569C5.52756 8.58569 5.38089 8.53903 5.25756 8.44736C5.02173 8.27069 4.92339 7.96403 5.01173 7.68319L5.66506 5.58903L4.01423 4.24569C3.79173 4.05736 3.71089 3.75069 3.81173 3.47736C3.91173 3.20403 4.17256 3.02236 4.46339 3.02236H6.54756L7.28506 0.953193C7.38589 0.681526 7.64589 0.501526 7.93589 0.501526C8.22589 0.501526 8.48589 0.681526 8.58673 0.953193L9.32423 3.02236H11.4084C11.7001 3.02236 11.9609 3.20486 12.0609 3.47903C12.1609 3.75319 12.0792 4.06069 11.8559 4.24819L10.2134 5.58653L10.8926 7.65653C10.9851 7.93653 10.8909 8.24486 10.6576 8.42486C10.4234 8.60486 10.1017 8.61736 9.85423 8.45653L7.94173 7.21069L6.06089 8.46903C5.94423 8.54736 5.80923 8.58653 5.67506 8.58653L5.67423 8.58569ZM19.8834 10.7874L13.4651 17.7949C11.8867 19.5182 9.65673 20.4999 7.32006 20.4999H3.76839C1.92756 20.4999 0.435059 19.0074 0.435059 17.1665V12.9999C0.435059 11.159 1.92756 9.66653 3.76839 9.66653H10.2576C11.4026 9.66653 12.3076 10.7165 12.0609 11.904C11.9001 12.6757 11.2242 13.2357 10.4442 13.3474L6.97589 13.8332C6.52006 13.8982 6.20339 14.3207 6.26923 14.7757C6.33423 15.2315 6.75673 15.5474 7.21173 15.4824L10.7551 14.9857C12.4734 14.7407 13.7692 13.2465 13.7692 11.5107C13.7692 11.3282 13.7426 11.1532 13.7151 10.979L16.6659 7.86486C17.0451 7.44819 17.5801 7.19569 18.1609 7.16903C18.7376 7.14069 19.2967 7.34319 19.7259 7.73403C20.6026 8.53236 20.6742 9.90153 19.8834 10.7874Z" fill="white" fill-opacity="0.9"/>
</svg>
