<svg width="26" height="11" viewBox="0 0 26 11" fill="none" xmlns="http://www.w3.org/2000/svg">
<path fill-rule="evenodd" clip-rule="evenodd" d="M8.39378 0.504865C8.35795 0.498268 8.29497 0.498759 8.25382 0.506001C8.09713 0.533618 7.49002 1.07032 7.49254 1.17902C7.49453 1.26179 7.56859 1.35334 10.2465 4.31511C10.5045 4.00288 10.8355 3.76628 11.2298 3.60871L11.2483 3.6013C9.06328 1.1884 8.43944 0.513324 8.39378 0.504865ZM9.01649 2.95599L10.2459 4.31585C10.2203 4.34682 10.1954 4.3786 10.1713 4.41112C10.0511 4.57173 9.95776 4.74742 9.88934 4.93528C9.82642 5.10818 9.817 5.27785 9.84766 5.43493C9.02871 5.64128 8.42617 6.25475 7.57072 7.59246C6.45617 9.33556 5.73756 9.80343 4.2799 9.73523L3.98889 9.72164L2.10954 7.64398C1.07596 6.50125 0.239156 5.55924 0.250106 5.55061C0.26099 5.54198 0.385426 5.54472 0.526586 5.55663C1.90772 5.67355 2.62136 5.1996 3.83107 3.36215C5.01802 1.55924 5.6838 1.11549 7.07974 1.19682L7.44508 1.21811L9.01649 2.95599ZM11.5322 4.08853C11.5716 4.07388 11.6116 4.0601 11.652 4.04726C11.6625 4.04391 11.6729 4.04062 11.6834 4.03739C11.9582 3.95373 12.2543 3.91196 12.5718 3.91196C13.0164 3.91196 13.4097 3.98091 13.7516 4.11881C13.7593 4.12185 13.767 4.12496 13.7746 4.12806C14.1056 4.26354 14.3663 4.45766 14.5564 4.71093C14.6092 4.78137 14.6549 4.85578 14.6934 4.9341C14.6935 4.93454 14.6934 4.93528 14.6936 4.93565C14.7563 5.06356 14.8002 5.20164 14.8246 5.35053C14.8245 5.35053 14.8248 5.35053 14.8246 5.35053C14.8402 5.44554 14.8475 5.54478 14.8475 5.64829C14.8475 5.89275 14.804 6.11002 14.7168 6.30018C14.6319 6.48822 14.5124 6.65541 14.3582 6.80163C14.204 6.94579 14.0219 7.07643 13.8119 7.19342C13.6354 7.2916 13.4901 7.394 13.3762 7.50055C13.2645 7.60711 13.1807 7.73043 13.1248 7.87037C13.0712 8.01038 13.0432 8.18278 13.041 8.38752C13.041 8.44642 12.99 8.49408 12.9271 8.49408H11.8848C11.8218 8.49408 11.7708 8.44642 11.7708 8.38752C11.773 8.02186 11.8076 7.73043 11.8747 7.51309C11.944 7.29582 12.0445 7.12031 12.1763 6.98657C12.3082 6.85283 12.4668 6.73162 12.6523 6.62302C12.7908 6.53942 12.9148 6.45272 13.0243 6.36286C13.1338 6.273 13.2209 6.17376 13.2857 6.06509C13.3505 5.95438 13.3829 5.83112 13.3829 5.69527C13.3829 5.55111 13.346 5.42469 13.2723 5.31602C13.1985 5.20742 13.0991 5.12382 12.974 5.0653C12.8511 5.00684 12.7148 4.97754 12.5651 4.97754C12.4199 4.97754 12.2825 5.00783 12.1529 5.06846C12.0233 5.12692 11.9171 5.21468 11.8345 5.33172C11.6835 5.54155 11.4862 5.76112 11.2158 5.76112H11.0377C10.6514 5.76112 10.3228 5.45529 10.4473 5.11333C10.499 4.97121 10.5682 4.84238 10.6547 4.72682C10.8271 4.49471 11.0469 4.313 11.3141 4.18156C11.3621 4.15791 11.4117 4.13588 11.4629 4.11546C11.4858 4.10615 11.5089 4.09715 11.5322 4.08853ZM15.1024 4.48336C15.2851 4.7571 15.3889 5.06244 15.4241 5.38838C16.3642 5.5359 16.9964 6.13336 17.9292 7.59222C19.0438 9.33531 19.7624 9.80325 21.22 9.73504L21.511 9.72145L23.3904 7.64373C24.424 6.50101 25.2608 5.55899 25.2499 5.55036C25.239 5.54174 25.1145 5.54447 24.9733 5.55644C23.5922 5.6733 22.8786 5.19935 21.6689 3.36192C20.4819 1.55902 19.8162 1.11526 18.4202 1.19659L18.0548 1.21788L16.4835 2.95576L15.1024 4.48336ZM15.0393 4.39411C15.0611 4.42322 15.0819 4.45264 15.1018 4.48249C17.9286 1.35651 18.0054 1.2631 18.0074 1.17879C18.01 1.07009 17.4029 0.533389 17.2461 0.505778C17.205 0.498529 17.142 0.498045 17.1062 0.504642C17.06 0.5132 16.421 1.20518 14.1689 3.69249C14.5195 3.86126 14.8142 4.09417 15.0393 4.39411ZM4.53468 3.64861C4.83167 3.17515 5.07941 2.82646 5.27161 2.61132C5.7294 2.099 6.24426 1.87388 6.93108 1.88573L7.09521 1.88855L7.71314 2.5717C8.053 2.94743 8.32496 3.25963 8.31753 3.26549C8.3101 3.27136 8.21924 3.29496 8.11564 3.31796C7.19721 3.52175 6.41164 4.21234 5.74898 5.39856C5.7217 5.44734 5.67896 5.40514 5.03634 4.69461L4.35271 3.93884L4.53468 3.64861ZM3.38211 7.57645C4.19993 7.38382 4.7866 6.89639 5.45902 5.85074C5.57576 5.66933 5.68613 5.50909 5.70438 5.49469C5.73112 5.47353 5.86644 5.61348 6.40918 6.22372L7.08094 6.979L6.74599 7.49571C5.97893 8.67914 5.42889 9.06032 4.52247 9.03643L4.36273 9.03221L3.73385 8.33694L3.10503 7.64174L3.38211 7.57645ZM20.9653 3.64838C20.6683 3.17492 20.4206 2.82623 20.2284 2.6111C19.7705 2.09877 19.2557 1.87365 18.5689 1.8855L18.4048 1.88833L17.7869 2.57148C17.447 2.9472 17.175 3.2594 17.1824 3.26526C17.1898 3.27113 17.2807 3.29473 17.3843 3.31773C18.3027 3.52152 19.0883 4.21209 19.751 5.39831C19.7782 5.44709 19.821 5.40489 20.4637 4.69436L21.1473 3.93859L20.9653 3.64838ZM22.1179 7.57627C21.3 7.38363 20.7134 6.89621 20.0409 5.85055C19.9242 5.66908 19.8138 5.50884 19.7956 5.49445C19.7688 5.47328 19.6335 5.61323 19.0908 6.22347L18.4191 6.97881L18.7539 7.49553C19.521 8.67896 20.0711 9.06007 20.9775 9.03618L21.1372 9.03196L21.7661 8.33676L22.395 7.64149L22.1179 7.57627ZM11.8613 10.2806C12.0199 10.4268 12.2109 10.5 12.4344 10.5C12.5774 10.5 12.7092 10.4666 12.8299 10.3996C12.9505 10.3307 13.0477 10.2398 13.1215 10.127C13.1975 10.0121 13.2366 9.88566 13.2388 9.74777C13.2366 9.54303 13.155 9.36752 12.9941 9.22124C12.8333 9.07497 12.6466 9.00186 12.4344 9.00186C12.2109 9.00186 12.0199 9.07497 11.8613 9.22124C11.7048 9.36752 11.6278 9.54303 11.63 9.74777C11.6278 9.95461 11.7048 10.1322 11.8613 10.2806Z" fill="#525252"/>
</svg>
