<svg width="13" height="13" viewBox="0 0 13 13" fill="none" xmlns="http://www.w3.org/2000/svg">
<path d="M8.56554 1.32471C8.56119 1.62221 8.71119 1.90076 8.962 2.06087C11.1896 3.42189 11.892 6.33104 10.531 8.55858C9.16993 10.7861 6.26084 11.4886 4.03327 10.1276C1.8057 8.76657 1.10324 5.85742 2.46429 3.62985C2.85318 2.99336 3.3872 2.45793 4.02266 2.06735C4.27776 1.90724 4.4318 1.62644 4.42975 1.32526C4.43111 0.835805 4.03543 0.437938 3.54597 0.436581C3.37786 0.43611 3.21308 0.483468 3.07086 0.573145C0.0217735 2.46705 -0.91468 6.47408 0.979192 9.52314C2.87307 12.5722 6.8801 13.5087 9.92916 11.6148C12.9782 9.72091 13.9147 5.71388 12.0208 2.66482C11.4936 1.8161 10.7779 1.10035 9.92916 0.573173C9.51382 0.31115 8.96471 0.435445 8.70269 0.850788C8.61318 0.992643 8.56565 1.15696 8.56554 1.32471Z" fill="#525252"/>
</svg>
