<svg width="29" height="30" viewBox="0 0 29 30" fill="none" xmlns="http://www.w3.org/2000/svg">
<path d="M21.436 14.9333C21.436 13.4566 21.0255 12.013 20.2563 10.7851C19.4872 9.55718 18.3939 8.60016 17.1148 8.03502C15.8357 7.46989 14.4283 7.32202 13.0704 7.61013C11.7125 7.89823 10.4653 8.60936 9.48629 9.65359C8.50732 10.6978 7.84064 12.0283 7.57054 13.4766C7.30044 14.925 7.43907 16.4263 7.96888 17.7907C8.49869 19.155 9.3959 20.3212 10.547 21.1416C11.6982 21.9621 13.0516 22.4 14.436 22.4C16.292 22.398 18.0714 21.6107 19.3837 20.2109C20.6961 18.811 21.4342 16.913 21.436 14.9333ZM17.5055 16.3122L15.297 19.4519C15.1969 19.5946 15.0669 19.7104 14.9174 19.7902C14.768 19.87 14.6032 19.9115 14.436 19.9115C14.2689 19.9115 14.1041 19.87 13.9546 19.7902C13.8052 19.7104 13.6752 19.5946 13.575 19.4519L11.3665 16.3122C11.0871 15.9143 10.936 15.4305 10.936 14.9333C10.936 14.4362 11.0871 13.9524 11.3665 13.5545L13.575 10.4147C13.6752 10.2721 13.8052 10.1562 13.9546 10.0764C14.1041 9.99667 14.2689 9.95513 14.436 9.95513C14.6032 9.95513 14.768 9.99667 14.9174 10.0764C15.0669 10.1562 15.1969 10.2721 15.297 10.4147L17.5055 13.5545C17.785 13.9524 17.936 14.4362 17.936 14.9333C17.936 15.4305 17.785 15.9143 17.5055 16.3122ZM11.5952 0.309855C13.4693 -0.103285 15.4028 -0.103285 17.2769 0.309855L16.2409 4.11412C16.1705 4.3837 16.0153 4.61925 15.8014 4.78125C15.5875 4.94326 15.3278 5.02187 15.066 5.0039C14.8584 4.98772 14.6484 4.97777 14.436 4.97777C14.2237 4.97777 14.0137 4.98772 13.806 5.0039C13.5443 5.02164 13.2847 4.94293 13.0709 4.78096C12.857 4.61899 12.7018 4.38357 12.6312 4.11412L11.5952 0.309855ZM18.4715 4.84461L19.5099 1.03039C21.3136 1.78416 22.9518 2.9275 24.3217 4.38866C25.6915 5.84981 26.7634 7.59723 27.47 9.52123L23.8942 10.6288C23.6473 10.7078 23.3827 10.6959 23.1429 10.595C22.9031 10.4941 22.7022 10.3101 22.5724 10.0725C21.7296 8.47419 20.4915 7.15349 18.993 6.25457C18.7703 6.11612 18.5978 5.90176 18.5032 5.646C18.4086 5.39024 18.3974 5.10796 18.4715 4.84461ZM23.7449 14.2613C23.728 13.9821 23.8017 13.7051 23.9536 13.4769C24.1055 13.2488 24.3263 13.0833 24.579 13.0082L28.1455 11.9031C28.5329 13.9021 28.5329 15.9645 28.1455 17.9635L24.579 16.8585C24.3263 16.7834 24.1055 16.6179 23.9536 16.3897C23.8017 16.1615 23.728 15.8846 23.7449 15.6053C23.76 15.3838 23.7694 15.1598 23.7694 14.9333C23.7694 14.7068 23.76 14.4828 23.7449 14.2613ZM4.97904 10.5616L1.4592 9.35448C2.17757 7.46728 3.24878 5.75594 4.60752 4.32481C5.96625 2.89368 7.58403 1.77276 9.3622 1.03039L10.4005 4.84461C10.4746 5.10827 10.4633 5.39085 10.3685 5.64684C10.2737 5.90283 10.1009 6.11734 9.87787 6.25581C8.39801 7.14439 7.17185 8.44455 6.33004 10.0178C6.19691 10.2593 5.99028 10.445 5.7445 10.544C5.49872 10.6429 5.22859 10.6491 4.97904 10.5616ZM17.4367 29.512C15.4608 29.9849 13.4113 29.9849 11.4354 29.512L12.5787 25.7152C12.6541 25.4529 12.8104 25.2256 13.0222 25.0699C13.2339 24.9143 13.4888 24.8395 13.7454 24.8578C13.9787 24.8777 14.2039 24.8889 14.436 24.8889C14.6682 24.8889 14.9027 24.8777 15.1267 24.8578C15.3833 24.8395 15.6381 24.9143 15.8499 25.0699C16.0617 25.2256 16.2179 25.4529 16.2934 25.7152L17.4367 29.512ZM5.13187 15.67C5.14897 15.9437 5.07888 16.2156 4.93297 16.4415C4.78706 16.6673 4.57389 16.834 4.32804 16.9145L0.768538 18.134C0.325201 16.0264 0.325201 13.8402 0.768538 11.7326L4.32804 12.9522C4.57389 13.0326 4.78706 13.1993 4.93297 13.4252C5.07888 13.6511 5.14897 13.9229 5.13187 14.1966C5.1132 14.4355 5.1027 14.6844 5.1027 14.9333C5.1027 15.1822 5.1132 15.4311 5.13187 15.67ZM23.8942 19.2379L27.47 20.3454C26.7741 22.2421 25.7232 23.9678 24.3815 25.4171C23.0398 26.8664 21.4354 28.009 19.6662 28.7753L18.5345 25.0208C18.4518 24.7546 18.4573 24.4663 18.5501 24.2039C18.6429 23.9416 18.8174 23.7212 19.0444 23.5797C20.5196 22.6818 21.7389 21.3739 22.5724 19.7954C22.7018 19.5574 22.9027 19.373 23.1425 19.2718C23.3824 19.1707 23.6472 19.1587 23.8942 19.2379ZM10.3375 25.0208L9.20587 28.7753C7.46214 28.0206 5.87808 26.9005 4.54745 25.4811C3.21682 24.0618 2.16669 22.3721 1.4592 20.5122L4.97904 19.3051C5.22868 19.2169 5.49914 19.223 5.74509 19.3222C5.99105 19.4214 6.19756 19.6078 6.33004 19.8501C7.16284 21.4059 8.37146 22.6951 9.83004 23.5835C10.0555 23.7255 10.2287 23.9454 10.321 24.2068C10.4133 24.4682 10.4191 24.7554 10.3375 25.0208Z" fill="white" fill-opacity="0.9"/>
</svg>
