<svg width="12" height="12" viewBox="0 0 12 12" fill="none" xmlns="http://www.w3.org/2000/svg">
<path d="M5.95508 0.0416641C2.12821 0.0654975 0 2.22296 0 5.99025C0 9.75754 2.13037 11.9361 5.96158 11.9583C9.841 11.9356 11.8446 9.93412 11.9167 5.99079C11.8506 2.17908 9.73592 0.0660391 5.95508 0.0416641ZM7.48854 6.54166H6.50054V7.53021C6.50054 7.82921 6.25842 8.07187 5.95888 8.07187C5.65933 8.07187 5.41721 7.82921 5.41721 7.53021V6.54166H4.42921C4.12967 6.54166 3.88754 6.299 3.88754 6C3.88754 5.701 4.12967 5.45833 4.42921 5.45833H5.41721V4.46979C5.41721 4.17079 5.65933 3.92812 5.95888 3.92812C6.25842 3.92812 6.50054 4.17079 6.50054 4.46979V5.45833H7.48854C7.78808 5.45833 8.03021 5.701 8.03021 6C8.03021 6.299 7.78808 6.54166 7.48854 6.54166Z" fill="#363535"/>
</svg>
