<svg width="90" height="64" viewBox="0 0 90 64" fill="none" xmlns="http://www.w3.org/2000/svg">
<path d="M71.841 27.644C73.2499 27.8849 73.2991 27.9123 73.7725 28.5988C74.1487 29.1223 74.5061 30.2419 75.1384 33.0292C75.6155 35.079 76.032 37.0631 76.084 37.4726C76.2083 38.4767 75.8403 39.5901 75.1454 40.2074C73.6832 41.5376 67.652 43.4085 59.3324 45.0769C55.0309 45.9396 47.7626 46.9294 29.0487 49.1945C23.2691 49.8945 17.0205 50.6721 15.1738 50.9322C13.313 51.1715 11.6617 51.3579 11.5035 51.3288C11.3629 51.3028 11.122 50.9315 10.9998 50.5094C10.7966 49.8365 10.7215 49.7496 10.3937 49.8528C9.77636 50.0482 9.39129 49.8689 8.89248 49.1231L8.42218 48.419L9.25777 48.2271C9.71529 48.1114 10.735 48.0987 11.5211 48.1706C16.3651 48.6068 26.9229 47.5134 41.3403 45.0945C47.3603 44.0753 56.4445 42.402 56.6318 42.2728C56.8814 42.1007 56.504 41.9769 54.5948 41.5896C52.7386 41.212 52.5387 41.2115 51.6176 41.4781C49.0955 42.25 37.4981 44.5514 34.1211 44.9301L32.8401 45.0768L31.8769 43.9912L30.8924 42.9196L30.212 43.0666C26.1774 43.9602 13.568 46.621 13.3507 46.6174C13.1686 46.62 13.0892 46.46 13.109 46.1549C13.1339 45.7236 13.294 45.6442 14.7024 45.1948C15.5674 44.936 16.2364 44.6588 16.1764 44.593C16.1365 44.513 15.4494 44.2957 14.6538 44.0767C12.9749 43.6227 11.7425 42.8151 10.0822 41.0747C9.35184 40.3047 8.87269 39.944 8.48608 39.8727C7.7303 39.7338 7.33135 39.8239 7.27319 40.1403C7.24881 40.283 8.189 41.8899 9.35935 43.721C11.2009 46.548 11.4543 47.0502 11.1542 47.1042C10.4554 47.2483 10.2844 47.0894 8.62193 44.767C7.69746 43.4706 6.51454 41.7995 5.97725 41.0647L5.00984 39.7053L3.32674 40.1594L1.64461 40.6137L1.70179 40.0057C1.73133 39.6478 1.87965 39.2393 2.02061 39.0654C2.16193 38.8914 3.3182 38.4312 4.58788 38.047C6.85549 37.3738 7.34166 37.0996 7.05477 36.6834C6.95354 36.5383 6.31738 36.6397 5.14936 36.9696L3.40055 37.4842L3.48142 37.0443C3.54608 36.6928 3.83512 36.5096 5.06187 36.0629C7.06553 35.3414 8.36356 35.1981 9.19387 35.623C9.54359 35.7964 10.8716 37.0765 12.1445 38.4552C15.0216 41.5822 16.6683 42.903 17.8333 42.9902C18.781 43.0735 24.2525 41.6804 29.6345 39.9806C33.164 38.8671 33.8213 38.5522 33.5202 38.1153C33.4198 37.9697 32.2143 38.2018 29.4844 38.9174C26.6745 39.6727 25.581 39.8894 25.5047 39.7119C25.3585 39.3217 25.5941 39.1285 26.6927 38.7854C27.2715 38.6012 27.7688 38.3654 27.7882 38.26C27.8103 38.1366 27.6406 37.7783 27.4257 37.4665L27.0029 36.8983L23.2129 37.9461C21.1291 38.5079 19.3968 38.9341 19.3681 38.8925C19.2516 38.7412 20.2218 36.7238 20.4921 36.5374C20.6606 36.4221 22.3439 35.86 24.2507 35.2664C27.6647 34.1863 27.7243 34.1604 27.7893 33.6093C27.8441 33.3109 27.8288 32.9995 27.7859 32.9365C27.7428 32.8741 27.0713 32.9686 26.2925 33.1525L24.8854 33.4935L23.6213 31.5712C22.9432 30.5209 22.3688 29.5981 22.3453 29.5195C22.3026 29.2573 24.1476 28.4147 25.2381 28.2154C27.1948 27.8485 27.2815 27.8828 45.7007 34.0306C51.7962 36.0598 56.8993 37.8528 57.0524 38.0081C57.2979 38.253 57.2887 38.3057 56.8801 38.8482L56.4618 39.4435L56.9213 39.7097C57.1688 39.8461 57.8733 40.2665 58.4752 40.6497L59.6066 41.3115L61.5205 40.8819C63.8679 40.3686 67.8074 39.2036 70.2852 38.2782L72.115 37.6147L72.6001 38.1408C73.085 38.6659 73.7132 38.9079 73.9374 38.6766C74.005 38.5949 73.7199 37.3814 73.2919 35.9604C72.8807 34.5402 72.3574 32.4444 72.147 31.3155C71.9224 30.1661 71.6784 29.122 71.5987 28.9618C71.4729 28.757 71.0571 28.6446 69.7439 28.4758C67.8296 28.2147 66.4783 28.348 61.974 29.2279C59.0734 29.7848 49.0567 32.5767 48.4533 32.9927C48.1795 33.1967 47.8097 33.129 45.0814 32.3549C43.4057 31.8833 41.9695 31.4919 41.8992 31.479C41.6537 31.433 41.9372 30.4863 42.4066 29.8098C42.7977 29.2639 43.2668 28.986 45.2585 28.1348C48.0786 26.9272 50.748 26.1465 52.4425 26.0219L53.6394 25.9332L55.2539 26.9379C57.5863 28.3843 57.9376 28.4489 62.2813 28.0482C69.3379 27.4194 70.3086 27.3805 71.841 27.644ZM80.4157 38.5232C81.819 42.6514 82.1908 44.4825 82.6014 49.4639C82.7969 51.6621 82.7839 51.7324 82.3928 52.2783C82.1736 52.5827 81.9117 52.8254 81.8234 52.81C81.7355 52.7939 80.9452 51.1582 80.0555 49.1776C79.1869 47.1832 78.3395 45.1744 78.174 44.6892C77.9911 44.2013 77.6622 42.0331 77.4043 39.8779L76.9505 35.9241L78.0082 35.21C78.5718 34.8062 79.061 34.5147 79.0778 34.5339C79.0889 34.5722 79.6878 36.3544 80.4157 38.5232ZM78.9114 43.6432C78.7425 43.3759 78.3352 43.8103 78.4111 44.1877C78.5128 44.8253 81.6922 52.0401 81.8601 52.0165C81.9687 52.0179 82.1084 51.7534 82.2017 51.4438C82.2982 51.1164 82.2624 50.6192 82.1194 50.2114C81.9032 49.6083 79.2349 44.1569 78.9114 43.6432ZM28.8181 29.2012C28.6104 29.1449 28.4536 29.207 28.4246 29.3652C28.3875 29.5766 31.003 30.6756 40.5585 34.5211C47.257 37.2243 53.0378 39.486 53.4212 39.5746C53.8221 39.6665 54.3575 39.6201 54.7302 39.4707C55.472 39.1894 56.2005 38.4878 56.0087 38.2521C55.9194 38.1448 31.2148 29.9147 28.8181 29.2012ZM62.9874 33.3025C63.3936 33.9585 63.6969 34.578 63.6951 34.6866C63.6746 34.7934 63.1128 35.5796 62.45 36.4198C61.3127 37.8637 61.226 37.9396 60.7023 37.8252C60.3891 37.7494 58.3155 36.9684 56.0826 36.0674C53.8467 35.1839 51.9176 34.4106 51.7833 34.3496C51.6492 34.2886 53.944 33.7654 56.9039 33.183L62.2464 32.0939L62.9874 33.3025ZM67.3982 31.1515C67.3494 31.6148 67.105 32.5508 66.8768 33.1993L66.4748 34.3974L67.164 35.6878L67.8534 36.9772L67.3466 37.0658C66.931 37.1528 66.8175 37.0769 66.526 36.5873C66.3461 36.2817 66.184 35.9794 66.1969 35.9092C66.2535 35.502 65.8658 35.8305 65.3625 36.5918C65.0546 37.0803 64.6793 37.5378 64.5369 37.6206C64.2553 37.7686 62.8884 38.0987 62.9031 38.0113C62.9096 37.9762 63.3 37.4297 63.7776 36.8088C64.2407 36.1672 64.7893 35.3597 64.9977 35.0165L65.349 34.391L64.6404 33.0066C63.9286 31.6403 63.9148 31.6198 64.3402 31.4799C64.727 31.3513 64.8229 31.4231 65.3261 32.242C65.632 32.7525 65.9366 33.1724 65.9893 33.1821C66.0422 33.1914 66.4143 32.5513 66.7977 31.75L67.5038 30.2802L67.3982 31.1515ZM51.9826 28.0265C50.6843 27.479 49.6038 27.4258 47.939 27.8829C46.6612 28.2112 44.2392 29.3289 44.3508 29.5129C44.4414 29.6205 45.9237 30.1477 46.652 30.3361C46.8804 30.3781 47.7329 30.1894 48.5486 29.9033C49.3609 29.6348 50.7043 29.2459 51.504 29.0476C52.3211 28.8526 52.9952 28.6488 53.0081 28.5785C53.0199 28.5078 52.5569 28.2591 51.9826 28.0265ZM75.9434 30.4327C76.2418 30.3062 79.6811 31.0473 80.1738 31.3375C80.3191 31.4369 80.4272 31.6389 80.4013 31.7795C80.2657 32.5176 77.5002 35.1151 76.9719 35.0195C76.8137 34.9904 76.5729 34.4192 76.3969 33.6965C75.6517 30.634 75.6443 30.5776 75.9434 30.4327ZM53.0756 26.6288C52.689 26.5578 52.195 26.5758 51.9758 26.6808C51.555 26.8942 51.5548 26.8947 53.5935 28.1598C54.0178 28.4194 54.3624 28.7183 54.3787 28.8304C54.3945 28.9423 53.9737 29.1559 53.4363 29.3115C52.3794 29.6259 52.1474 29.8013 52.2375 30.1992C52.3038 30.6293 52.5807 30.6078 54.8134 29.9281C56.2537 29.5027 56.887 29.2194 56.8878 29.0196C56.8854 28.6376 53.9688 26.8113 53.0756 26.6288ZM77.7852 30.9898C76.3439 30.7248 76.2347 30.7229 76.1733 31.0568C76.0958 31.4787 76.3899 32.5503 76.5832 32.5859C76.6547 32.5985 77.4439 32.4531 78.3721 32.2425C79.2787 32.0464 80.0277 31.8212 80.0433 31.7504C80.082 31.5395 79.3318 31.2741 77.7852 30.9898ZM74.9357 16.6384L76.817 21.0364L77.3701 25.5348C77.6814 27.987 77.8887 30.0218 77.8335 30.0355C77.7776 30.0434 77.2079 29.9752 76.5655 29.9116L75.4106 29.7718L74.1883 26.2396C72.925 22.5372 72.6097 20.9893 72.2173 16.5021C71.9763 13.8597 72.0657 13.0763 72.6467 12.5835L73.0553 12.2406L74.9357 16.6384ZM73.0577 13.3134C72.8712 13.0429 72.5099 13.4306 72.3968 14.0458C72.3165 14.4859 73.4454 17.0374 75.2589 20.5136C75.8735 21.7169 76.2103 21.9599 76.3331 21.292C76.379 21.0227 73.4672 13.9521 73.0577 13.3134Z" fill="#E40539"/>
</svg>
