<svg width="82" height="34" viewBox="0 0 82 34" fill="none" xmlns="http://www.w3.org/2000/svg">
<path d="M70.2325 9.69181C71.6413 9.93264 71.6909 9.96047 72.164 10.6466C72.5401 11.17 72.8977 12.29 73.5299 15.077C74.0071 17.1271 74.4244 19.1122 74.4763 19.5215C74.6004 20.5255 74.2315 21.639 73.5367 22.2561C72.0741 23.5863 66.0429 25.4573 57.7237 27.1256C53.4222 27.9883 46.1536 28.9782 27.44 31.2433C21.6609 31.9432 15.4135 32.72 13.5662 32.9801C11.7052 33.2195 10.053 33.4066 9.89481 33.3775C9.75416 33.3513 9.51329 32.9801 9.39112 32.5581C9.188 31.8854 9.11339 31.7987 8.78595 31.9018C8.16871 32.0971 7.78345 31.9174 7.28476 31.172L6.81464 30.467L7.64909 30.2758C8.10649 30.1601 9.12619 30.1474 9.91244 30.2193C14.7564 30.6556 25.3149 29.5624 39.7326 27.1434C45.7505 26.1246 54.8297 24.4517 55.0231 24.3216C55.2728 24.1495 54.8961 24.0258 52.9871 23.6385C51.1305 23.2608 50.9302 23.2601 50.009 23.5269C47.4866 24.2988 35.8891 26.6002 32.5125 26.9788L31.2316 27.1246L30.2684 26.039L29.2847 24.9685L28.6033 25.1153C24.5688 26.0089 11.9594 28.6697 11.742 28.6661C11.5601 28.6687 11.4806 28.5086 11.5003 28.2037C11.5251 27.7722 11.6851 27.6921 13.0939 27.2426C13.9587 26.9839 14.6274 26.7076 14.5677 26.6417C14.5279 26.5617 13.8407 26.3444 13.0451 26.1255C11.3662 25.6714 10.1341 24.8631 8.47367 23.1225C7.74325 22.3523 7.26422 21.9917 6.87758 21.9205C6.12208 21.7816 5.72404 21.8721 5.66565 22.1882C5.6398 22.3288 6.57942 23.9373 7.75067 25.7697C9.59202 28.5964 9.8456 29.0978 9.54566 29.152C8.8469 29.2961 8.67565 29.138 7.01325 26.8158C6.08881 25.5194 4.90589 23.8483 4.36857 23.1135L3.40116 21.754L1.71903 22.2083L0.0361076 22.6615L0.0931106 22.0544C0.122588 21.6965 0.270981 21.2882 0.411932 21.1141C0.552933 20.9402 1.70931 20.48 2.97921 20.0957C5.24703 19.4224 5.733 19.1483 5.4461 18.7322C5.34504 18.5869 4.709 18.6884 3.54068 19.0183L1.79301 19.5321L1.8737 19.0932C1.93833 18.7416 2.22633 18.5584 3.45319 18.1116C5.45734 17.3899 6.75583 17.2468 7.58616 17.672C7.93642 17.846 9.26341 19.1257 10.5358 20.5039C13.4128 23.6308 15.0598 24.9507 16.2248 25.0379C17.1725 25.1213 22.6438 23.7291 28.0258 22.0293C31.5557 20.9158 32.2129 20.6001 31.9117 20.1631C31.8092 20.0183 30.603 20.2513 27.8757 20.9661C25.066 21.7214 23.9723 21.9382 23.896 21.7606C23.7497 21.3703 23.9853 21.1773 25.084 20.8342C25.6629 20.6499 26.1601 20.4142 26.1795 20.3088C26.202 20.1856 26.0321 19.8273 25.817 19.5153L25.3942 18.9471L21.6042 19.9949C19.5204 20.5566 17.7881 20.9829 17.7594 20.9413C17.6426 20.7905 18.6131 18.7725 18.8834 18.5861C19.0504 18.4712 20.7345 17.9081 22.6422 17.3141C26.0566 16.234 26.1158 16.2084 26.1808 15.6571C26.2356 15.3584 26.2204 15.0467 26.1774 14.9843C26.1328 14.9223 25.4618 15.0166 24.684 15.2002L23.2769 15.5413L22.0128 13.6189C21.3341 12.5676 20.759 11.644 20.7368 11.5673C20.6962 11.3046 22.5395 10.4633 23.6295 10.2641C25.5863 9.89721 25.672 9.93129 44.092 16.0794C50.1847 18.1076 55.2862 19.8991 55.4439 20.0559C55.6896 20.3009 55.6801 20.3543 55.2714 20.897L54.8532 21.4923L55.3126 21.7584C55.5601 21.8948 56.2648 22.3143 56.8667 22.6975L57.9979 23.3602L59.9128 22.9308C62.2602 22.4175 66.1988 21.2523 68.6765 20.327L70.5063 19.6635L70.9916 20.1886C71.4765 20.7138 72.1045 20.9567 72.3287 20.7253C72.3971 20.6459 72.1119 19.4308 71.6834 18.0082C71.2722 16.588 70.7487 14.4931 70.5384 13.3643C70.3137 12.2151 70.0698 11.1712 69.9901 11.0105C69.8642 10.8057 69.4486 10.6934 68.1353 10.5246C66.2209 10.2635 64.8697 10.3958 60.3655 11.2757C57.4649 11.8326 47.448 14.6254 46.8446 15.0414C46.5709 15.2452 46.201 15.1767 43.4738 14.4029C41.798 13.9313 40.361 13.5397 40.2907 13.5268C40.0455 13.4804 40.3288 12.534 40.7981 11.8576C41.1892 11.312 41.6586 11.0346 43.6498 10.1835C46.4701 8.97589 49.1393 8.19523 50.8338 8.07068L52.0309 7.98096L53.6452 8.98668C55.9776 10.433 56.3291 10.4976 60.6726 10.0969C67.7292 9.46815 68.7001 9.42827 70.2325 9.69181ZM79.6995 19.19C81.1028 21.7531 81.4745 22.8904 81.8851 25.9833C82.0805 27.3475 82.0679 27.3916 81.6771 27.7303C81.4579 27.9193 81.1954 28.0699 81.1071 28.0604C81.0192 28.0504 80.2289 27.0349 79.3392 25.8052C78.4709 24.5672 77.6235 23.3204 77.4576 23.0186C77.2747 22.7157 76.9462 21.3686 76.6883 20.0305L76.234 17.5758L77.2925 17.133C77.8574 16.8816 78.3473 16.7 78.3616 16.7129C78.3728 16.7368 78.9717 17.8433 79.6995 19.19ZM78.1947 22.3687C78.0257 22.2031 77.6188 22.4725 77.6946 22.7067C77.7956 23.1016 80.9718 27.577 81.1431 27.5676C81.2517 27.5687 81.3921 27.4049 81.4854 27.2125C81.5819 27.0092 81.5458 26.6999 81.4028 26.4467C81.1862 26.0718 78.5181 22.6877 78.1947 22.3687ZM27.2094 11.25C27.002 11.1937 26.8454 11.2551 26.8161 11.413C26.7773 11.6239 29.3918 12.7231 38.9508 16.57C45.6487 19.273 51.4285 21.5344 51.8126 21.6234C52.2136 21.7153 52.7489 21.668 53.1216 21.5185C53.8639 21.237 54.5931 20.5352 54.4002 20.2999C54.3043 20.1905 29.6052 11.9631 27.2094 11.25ZM61.3787 15.3512C61.7846 16.0067 62.0889 16.6252 62.0875 16.7346C62.0681 16.8401 61.5048 17.6275 60.8414 18.4685C59.7041 19.9123 59.6176 19.9874 59.0938 19.873C58.7806 19.7972 56.707 19.0162 54.4741 18.1151C52.2382 17.2317 50.3088 16.4593 50.1746 16.3983C50.041 16.3372 52.3357 15.8141 55.2952 15.2317L60.6378 14.1426L61.3787 15.3512ZM65.7896 13.2002C65.7407 13.6637 65.4963 14.5997 65.2681 15.2481L64.8662 16.4461L65.5555 17.7356L66.2447 19.026L65.7379 19.1145C65.3223 19.2016 65.2088 19.1256 64.9173 18.636C64.7374 18.3305 64.5754 18.0283 64.5882 17.9579C64.645 17.5504 64.2572 17.8791 63.7538 18.6405C63.4459 19.129 63.0706 19.5865 62.9282 19.6693C62.6467 19.8172 61.2828 20.1464 61.2945 20.0601C61.3009 20.0249 61.6914 19.4784 62.1689 18.8575C62.632 18.216 63.1805 17.4086 63.389 17.0652L63.7405 16.4388L63.0317 15.0554C62.32 13.6891 62.3055 13.6673 62.7307 13.5275C63.1178 13.3988 63.2139 13.4715 63.7174 14.2908C64.0233 14.8013 64.3279 15.2212 64.3806 15.2309C64.4339 15.2394 64.8059 14.5987 65.1892 13.7978L65.8951 12.329L65.7896 13.2002ZM50.3739 10.0753C49.0756 9.52776 47.9951 9.47455 46.3303 9.9316C45.0525 10.26 42.6306 11.3776 42.7421 11.5616C42.8331 11.6694 44.3153 12.1955 45.0435 12.3839C45.2719 12.4259 46.1244 12.2372 46.9401 11.9511C47.7526 11.6826 49.0968 11.2938 49.8964 11.0956C50.7133 10.9006 51.3863 10.6975 51.3994 10.6272C51.4124 10.5569 50.9489 10.3082 50.3739 10.0753ZM74.3348 12.4815C74.6313 12.3544 78.0722 13.0959 78.5651 13.3863C78.7104 13.4857 78.8185 13.6877 78.7927 13.8283C78.6563 14.5668 75.8911 17.1643 75.3632 17.0682C75.205 17.0391 74.9644 16.4671 74.7884 15.7442C74.0433 12.6823 74.0356 12.6263 74.3348 12.4815ZM51.4669 8.67758C51.0803 8.60651 50.5863 8.62452 50.3671 8.72958C49.9466 8.94283 49.9469 8.94285 51.985 10.2076C52.4096 10.4673 52.7542 10.7672 52.77 10.8792C52.7858 10.9911 52.365 11.2047 51.8277 11.3603C50.7708 11.6746 50.5386 11.8499 50.6288 12.248C50.6951 12.6781 50.972 12.6566 53.2047 11.9768C54.6457 11.5513 55.2789 11.2672 55.2793 11.0674C55.2743 10.6843 52.3597 8.85987 51.4669 8.67758ZM76.1765 13.0385C74.7353 12.7736 74.6269 12.7718 74.5655 13.1058C74.4883 13.5279 74.7813 14.5991 74.9746 14.6346C75.0452 14.6474 75.8348 14.501 76.7636 14.2903C77.6719 14.0939 78.4219 13.8685 78.4348 13.7982C78.4728 13.5874 77.7225 13.3227 76.1765 13.0385ZM73.9555 3.31057L75.8366 6.04043L76.3905 8.83407C76.7021 10.3588 76.9087 11.6239 76.8527 11.6288C76.7939 11.6334 76.2265 11.5911 75.586 11.5518L74.4304 11.4644L73.2081 9.27174C71.9447 6.97295 71.6299 6.01178 71.2375 3.22594C70.9965 1.58522 71.0858 1.09874 71.6669 0.792782L72.0754 0.579932L73.9555 3.31057ZM72.0782 1.24569C71.8917 1.07781 71.53 1.3183 71.4168 1.7C71.336 1.97281 72.4651 3.55762 74.2788 5.71629C74.8934 6.46336 75.2308 6.61454 75.3536 6.19985C75.4009 6.03468 72.4883 1.64316 72.0782 1.24569Z" fill="#E40539"/>
</svg>
