<svg width="37" height="256" viewBox="0 0 37 256" fill="none" xmlns="http://www.w3.org/2000/svg">
<path d="M19 42.0059C28.9861 42.2708 37 50.4499 37 60.5C37 70.5501 28.9861 78.7282 19 78.9932V256H18V78.9932C8.01388 78.7282 0 70.5501 0 60.5C0 50.4499 8.01387 42.2708 18 42.0059V0H19V42.0059ZM18 43.0068C8.56624 43.2715 1 51.0022 1 60.5C1 69.9977 8.56625 77.7275 18 77.9922V72.9883C11.3283 72.7258 6 67.2361 6 60.5C6 53.7639 11.3282 48.2732 18 48.0107V43.0068ZM19 48.0107C25.6717 48.2732 31 53.7639 31 60.5C31 67.2361 25.6717 72.7258 19 72.9883V77.9922C28.4338 77.7275 36 69.9977 36 60.5C36 51.0022 28.4338 43.2715 19 43.0068V48.0107ZM18 49.0117C11.8807 49.2735 7 54.3163 7 60.5C7 66.6837 11.8807 71.7255 18 71.9873V66.9785C14.6439 66.7231 12 63.9216 12 60.5C12 57.0784 14.6438 54.2759 18 54.0205V49.0117ZM19 54.0205C22.3562 54.2759 25 57.0784 25 60.5C25 63.9216 22.3561 66.7231 19 66.9785V71.9873C25.1193 71.7255 30 66.6837 30 60.5C30 54.3163 25.1193 49.2735 19 49.0117V54.0205Z" fill="#FE1D50"/>
</svg>
