<svg width="394" height="256" viewBox="0 0 394 256" fill="none" xmlns="http://www.w3.org/2000/svg">
<path d="M-91.7759 -192.471L-65.2856 -196.831L-4.51549 254.985L-91.7759 -192.471ZM-149.433 -176.407L-123.741 -184.195L-4.39718 255.792L-149.433 -176.407ZM-36.258 -200.559L-9.43377 -201.638L-4.53296 254.221L-36.258 -200.559ZM-201.082 -154.649L-176.537 -165.526L-4.18921 256.526L-201.082 -154.649ZM20.9692 -201.73L47.7185 -199.445L-4.45302 253.445L20.9692 -201.73ZM-252.031 -125.162L-229.091 -139.106L-3.87616 257.264L-252.031 -125.162ZM78.7862 -195.581L105.028 -189.914L-4.27296 252.674L78.7862 -195.581ZM-298.122 -89.9262L-277.134 -106.667L-3.47766 257.946L-298.122 -89.9262ZM134.569 -182.373L159.894 -173.463L-4.00098 251.942L134.569 -182.373ZM-338.841 -49.7275L-320.111 -68.9618L-3.00157 258.564L-338.841 -49.7275ZM189.211 -161.852L213.192 -149.784L-3.63159 251.239L189.211 -161.852ZM-373.883 -5.22741L-357.679 -26.6327L-2.4589 259.113L-373.883 -5.22741ZM239.106 -135.557L261.417 -120.624L-3.19286 250.608L239.106 -135.557ZM-403.03 43.0457L-389.587 19.8069L-1.85476 259.587L-403.03 43.0457ZM285.44 -103.262L305.737 -85.6894L-2.67783 250.036L285.44 -103.262ZM-426.628 96.2228L-416.25 71.4625L-1.17631 259.997L-426.628 96.2228ZM328.914 -63.9789L346.794 -43.9523L-2.07328 249.514L328.914 -63.9789ZM-443.008 150.82L-435.795 124.96L-0.465462 260.309L-443.008 150.82ZM365.399 -21.5747L380.696 0.488337L-1.43959 249.092L365.399 -21.5747ZM-452.534 207.772L-448.643 181.208L0.287546 260.533L-452.534 207.772ZM397.694 27.1706L410.046 51.0075L-0.726713 248.736L397.694 27.1706ZM-454.816 264.59L-454.257 237.749L1.0524 260.659L-454.816 264.59ZM423.127 78.7581L432.384 103.959L0.0131912 248.479L423.127 78.7581ZM-449.911 321.976L-452.735 295.279L1.83588 260.689L-449.911 321.976ZM0.762118 248.32L441.537 131.916L447.624 158.064L0.762118 248.32ZM-444.992 347.434L2.55231 260.63L-439.107 373.628L-444.992 347.434ZM1.57376 248.253L453.779 190.44L456.397 217.158L1.57376 248.253ZM2.35757 248.289L458.243 247.823L457.48 274.659L2.35757 248.289ZM3.11968 248.42L455.534 304.574L451.444 331.108L3.11968 248.42ZM3.87185 248.649L445.593 361.406L438.189 387.212L3.87185 248.649ZM4.57995 248.967L428.824 415.846L418.265 440.53L4.57995 248.967ZM5.25619 249.38L404.846 468.832L391.235 491.973L5.25619 249.38ZM5.85568 249.861L375.346 516.896L358.987 538.183L5.85568 249.861ZM6.39423 250.413L339.963 561.16L321.093 580.256L6.39423 250.413ZM6.87949 251.054L297.63 602.189L276.457 618.694L6.87949 251.054ZM7.26058 251.721L252.527 636.007L229.48 649.778L7.26058 251.721ZM7.57003 252.461L201.314 665.128L176.688 675.817L7.57003 252.461ZM1.79071 254.96C1.52154 255.02 1.25388 254.851 1.19326 254.582C1.13275 254.312 1.30234 254.045 1.57148 253.984C1.84091 253.924 2.10839 254.093 2.16893 254.362C2.22929 254.632 2.06002 254.899 1.79071 254.96ZM7.77059 253.198L149.471 686.503L123.719 694.092L7.77059 253.198ZM65.1703 706.278L7.88509 254.006L91.6935 702.122L65.1703 706.278ZM9.3087 710.653L7.89451 254.769L36.142 709.779L9.3087 710.653ZM-49.4888 707.838L7.80551 255.567L-22.7673 710.427L-49.4888 707.838ZM-104.966 698.077L7.62296 256.314L-78.7669 703.938L-104.966 698.077ZM-159.669 681.233L7.34536 257.043L-134.41 690.329L-159.669 681.233ZM-212.764 657.178L6.97247 257.744L-188.871 669.42L-212.764 657.178ZM-260.772 627.67L6.5279 258.372L-238.57 642.764L-260.772 627.67ZM-304.85 592.403L6.00895 258.94L-284.682 610.124L-304.85 592.403ZM-345.624 550.34L5.40068 259.458L-327.893 570.499L-345.624 550.34ZM-380.162 504.183L4.74243 259.887L-365.114 526.416L-380.162 504.183ZM-408.217 454.829L4.04678 260.225L-396.047 478.759L-408.217 454.829ZM-430.165 401.672L3.30369 260.477L-421.103 426.942L-430.165 401.672Z" fill="#171616"/>
</svg>
