<svg width="65" height="66" viewBox="0 0 65 66" fill="none" xmlns="http://www.w3.org/2000/svg">
<rect x="0.5" y="1.18978" width="63.6204" height="63.6204" rx="14.5" fill="url(#paint0_linear_607_559)"/>
<rect x="0.5" y="1.18978" width="63.6204" height="63.6204" rx="14.5" stroke="#C8B364"/>
<path d="M32.3093 17C34.2293 17 35.8048 18.1525 36.3503 19.9307L36.3513 19.9316L37.697 24.3398C37.9564 25.193 38.7601 25.8731 39.6912 25.8096L39.6921 25.8105C41.1957 25.7798 42.7023 25.7386 44.2068 25.6895H44.2117C45.9482 25.6166 47.3906 26.6061 48.0183 28.3418L48.0466 28.4209C48.6944 30.3086 48.11 32.3727 46.5925 33.585C45.3691 34.545 44.1636 35.4751 42.9587 36.3945H42.9578C42.2499 36.9358 41.9679 37.8593 42.1882 38.7246L42.239 38.8975C42.7423 40.3992 43.2635 41.911 43.8123 43.4355L43.8142 43.4395C44.4372 45.1268 44.05 46.8522 42.8767 47.9453L42.6316 48.1553C41.9182 48.7174 41.0562 48.9999 40.1677 49C39.255 49 38.3086 48.701 37.4714 48.0928H37.4724L33.6296 45.2715H33.6287C32.83 44.6874 31.7881 44.6898 30.9919 45.2715H30.991L27.155 48.0869C25.4988 49.2937 23.4296 49.2894 21.989 48.1533L21.7439 47.9434C20.5698 46.8506 20.1815 45.1252 20.8103 43.4258L20.8123 43.4219C21.3548 41.9102 21.8794 40.3992 22.3816 38.8945C22.6861 37.9819 22.4178 36.9696 21.6599 36.3916C20.4565 35.4736 19.2518 34.5436 18.0369 33.5908H18.0378C16.4893 32.3543 15.9079 30.2499 16.5974 28.3428C17.2226 26.6117 18.6848 25.6199 20.4236 25.6904H20.4275C21.916 25.7396 23.4227 25.7798 24.9275 25.8105V25.8096C25.8312 25.8729 26.5661 25.2711 26.8669 24.4971L26.9216 24.3379C27.3654 22.8668 27.8119 21.3975 28.2673 19.9307L28.2683 19.9287C28.8139 18.1524 30.3894 17 32.3093 17Z" fill="#BDA859" stroke="#C8B364"/>
<defs>
<linearGradient id="paint0_linear_607_559" x1="4.8146e-07" y1="33" x2="64.6204" y2="33" gradientUnits="userSpaceOnUse">
<stop stop-color="#877440"/>
<stop offset="1" stop-color="#BAA657"/>
</linearGradient>
</defs>
</svg>
