<svg width="66" height="66" viewBox="0 0 66 66" fill="none" xmlns="http://www.w3.org/2000/svg">
<rect x="1.1897" y="1.18978" width="63.6204" height="63.6204" rx="14.5" fill="url(#paint0_linear_607_561)"/>
<rect x="1.1897" y="1.18978" width="63.6204" height="63.6204" rx="14.5" fill="url(#paint1_linear_607_561)"/>
<rect x="1.1897" y="1.18978" width="63.6204" height="63.6204" rx="14.5" stroke="#E97273"/>
<path d="M33.696 17C34.6055 17.0002 35.4343 17.4982 35.863 18.3008V18.2998L38.1082 22.5078L38.324 22.9121L38.7458 22.7314L45.0623 20.0264C45.7241 19.7455 46.4563 19.8761 46.9724 20.3525L47.073 20.4531C47.5914 21.008 47.7055 21.7967 47.3679 22.4746L44.1521 28.2441L43.9031 28.6885L44.3533 28.9287L47.6677 30.6982C48.4688 31.1256 48.9665 31.954 48.9666 32.8623C48.9666 33.7713 48.4697 34.6018 47.6687 35.0303L44.5818 36.6797L44.116 36.9297L44.3914 37.3809L48.7429 44.5176L48.7458 44.5225L48.783 44.5898C49.1802 45.3945 49.0302 46.3152 48.3953 46.9512H48.3943C47.7981 47.5505 46.9498 47.7219 46.1794 47.4111L46.0271 47.3428L38.7449 43.4648L38.2957 43.2266L38.0642 43.6787L36.0291 47.6592C35.6091 48.4783 34.7781 48.9919 33.8591 49H33.8347C32.9802 49 32.1977 48.5634 31.7478 47.8457L31.6628 47.6992L29.4246 43.5156L29.2175 43.1279L28.8064 43.2832L23.572 45.2607C22.7642 45.5393 21.9441 45.3696 21.3474 44.8398L21.2312 44.7295C20.6263 44.111 20.4365 43.2297 20.7341 42.417C20.7455 42.3861 20.759 42.3548 20.7761 42.3203L23.2107 37.543L23.4568 37.0605L22.9568 36.8535L18.2664 34.918C17.4845 34.5742 17.0166 33.8657 16.9988 33.0527C16.9811 32.2387 17.4206 31.5114 18.1492 31.1494L22.9451 28.9375L23.4763 28.6924L23.1511 28.2051L18.7703 21.6514C18.2463 20.7666 18.3709 19.7688 19.0183 19.0928L19.0193 19.0918C19.6728 18.4061 20.6683 18.2461 21.5027 18.6914L21.5066 18.6934L28.7439 22.4746L29.1833 22.7041L29.4167 22.2666L31.5271 18.3027C31.9561 17.4987 32.7867 17 33.696 17Z" fill="url(#paint2_linear_607_561)" stroke="#E06C6D"/>
<defs>
<linearGradient id="paint0_linear_607_561" x1="0.689698" y1="33" x2="65.3101" y2="33" gradientUnits="userSpaceOnUse">
<stop stop-color="#161414"/>
<stop offset="1" stop-color="#161515"/>
</linearGradient>
<linearGradient id="paint1_linear_607_561" x1="0.689698" y1="33" x2="65.3101" y2="33" gradientUnits="userSpaceOnUse">
<stop stop-color="#874041"/>
<stop offset="1" stop-color="#BA5759"/>
</linearGradient>
<linearGradient id="paint2_linear_607_561" x1="16.4978" y1="33" x2="49.5021" y2="33" gradientUnits="userSpaceOnUse">
<stop stop-color="#B55758"/>
<stop offset="1" stop-color="#E36365"/>
</linearGradient>
</defs>
</svg>
