<svg width="12" height="12" viewBox="0 0 12 12" fill="none" xmlns="http://www.w3.org/2000/svg">
<path d="M5.99673 0C2.14309 0.024 0 2.19655 0 5.99018C0 9.78382 2.14527 11.9776 6.00327 12C9.90982 11.9771 11.9275 9.96164 12 5.99073C11.9335 2.15236 9.804 0.0245455 5.99673 0ZM7.54091 6.54545H6.546V7.54091C6.546 7.842 6.30218 8.08636 6.00055 8.08636C5.69891 8.08636 5.45509 7.842 5.45509 7.54091V6.54545H4.46018C4.15855 6.54545 3.91473 6.30109 3.91473 6C3.91473 5.69891 4.15855 5.45455 4.46018 5.45455H5.45509V4.45909C5.45509 4.158 5.69891 3.91364 6.00055 3.91364C6.30218 3.91364 6.546 4.158 6.546 4.45909V5.45455H7.54091C7.84255 5.45455 8.08636 5.69891 8.08636 6C8.08636 6.30109 7.84255 6.54545 7.54091 6.54545Z" fill="#595959"/>
</svg>
