<svg width="7" height="7" viewBox="0 0 7 7" fill="none" xmlns="http://www.w3.org/2000/svg">
<path d="M6.35457 2.39184C6.21894 1.9966 5.90132 1.76379 5.51865 1.78076C5.2264 1.79081 4.93386 1.7993 4.6419 1.80558C4.51211 1.81752 4.38932 1.71635 4.34907 1.57686C4.26244 1.27525 4.17553 0.973951 4.08715 0.672969C3.96815 0.264224 3.62311 0 3.20836 0C2.79361 0 2.44857 0.264224 2.32957 0.672655C2.2409 0.973637 2.15399 1.27493 2.06765 1.57654C2.0274 1.71635 1.91015 1.81815 1.77482 1.80558C1.48257 1.7993 1.19003 1.79113 0.900986 1.78107C0.518611 1.76474 0.196902 1.99723 0.0615689 2.39215C-0.0863061 2.8232 0.0379439 3.30107 0.372486 3.58257C0.609319 3.7783 0.844111 3.96932 1.07861 4.15783C1.19003 4.24737 1.2329 4.4076 1.18565 4.55684C1.08824 4.86442 0.986444 5.17325 0.881152 5.4824C0.737652 5.89115 0.839736 6.31717 1.14132 6.56726C1.45924 6.83148 1.90986 6.8274 2.26336 6.55595L3.00944 5.9788C3.13019 5.88581 3.28653 5.88549 3.40757 5.9788L4.15482 6.55689C4.33361 6.69387 4.53749 6.76268 4.7364 6.76268C4.93007 6.76268 5.11907 6.69764 5.27569 6.56757C5.57699 6.31749 5.67907 5.89146 5.53674 5.48523C5.43028 5.17357 5.32907 4.86442 5.23136 4.55715C5.18382 4.40823 5.22699 4.248 5.33811 4.15846C5.5729 3.96964 5.80799 3.77862 6.04657 3.58131C6.37907 3.30138 6.50332 2.82352 6.35544 2.39246L6.35457 2.39184Z" fill="black"/>
<path d="M6.35457 2.39184C6.21894 1.9966 5.90132 1.76379 5.51865 1.78076C5.2264 1.79081 4.93386 1.7993 4.6419 1.80558C4.51211 1.81752 4.38932 1.71635 4.34907 1.57686C4.26244 1.27525 4.17553 0.973951 4.08715 0.672969C3.96815 0.264224 3.62311 0 3.20836 0C2.79361 0 2.44857 0.264224 2.32957 0.672655C2.2409 0.973637 2.15399 1.27493 2.06765 1.57654C2.0274 1.71635 1.91015 1.81815 1.77482 1.80558C1.48257 1.7993 1.19003 1.79113 0.900986 1.78107C0.518611 1.76474 0.196902 1.99723 0.0615689 2.39215C-0.0863061 2.8232 0.0379439 3.30107 0.372486 3.58257C0.609319 3.7783 0.844111 3.96932 1.07861 4.15783C1.19003 4.24737 1.2329 4.4076 1.18565 4.55684C1.08824 4.86442 0.986444 5.17325 0.881152 5.4824C0.737652 5.89115 0.839736 6.31717 1.14132 6.56726C1.45924 6.83148 1.90986 6.8274 2.26336 6.55595L3.00944 5.9788C3.13019 5.88581 3.28653 5.88549 3.40757 5.9788L4.15482 6.55689C4.33361 6.69387 4.53749 6.76268 4.7364 6.76268C4.93007 6.76268 5.11907 6.69764 5.27569 6.56757C5.57699 6.31749 5.67907 5.89146 5.53674 5.48523C5.43028 5.17357 5.32907 4.86442 5.23136 4.55715C5.18382 4.40823 5.22699 4.248 5.33811 4.15846C5.5729 3.96964 5.80799 3.77862 6.04657 3.58131C6.37907 3.30138 6.50332 2.82352 6.35544 2.39246L6.35457 2.39184Z" fill="#7B7B7B"/>
</svg>
