<svg width="7" height="8" viewBox="0 0 7 8" fill="none" xmlns="http://www.w3.org/2000/svg">
<path d="M6.64681 3.24355C6.51118 2.84832 6.19356 2.61551 5.81089 2.63248C5.51864 2.64253 5.2261 2.65101 4.93414 2.6573C4.80435 2.66923 4.68156 2.56807 4.64131 2.42857C4.55468 2.12696 4.46776 1.82567 4.37939 1.52468C4.26039 1.11594 3.91535 0.851715 3.5006 0.851715C3.08585 0.851715 2.74081 1.11594 2.62181 1.52437C2.53314 1.82535 2.44622 2.12665 2.35989 2.42826C2.31964 2.56807 2.20239 2.66986 2.06706 2.6573C1.77481 2.65101 1.48226 2.64284 1.19322 2.63279C0.810847 2.61645 0.489139 2.84894 0.353805 3.24387C0.20593 3.67492 0.33018 4.15278 0.664722 4.43428C0.901555 4.63002 1.13635 4.82104 1.37085 5.00954C1.48226 5.09908 1.52514 5.25932 1.47789 5.40855C1.38047 5.71613 1.27868 6.02497 1.17339 6.33412C1.02989 6.74286 1.13197 7.16889 1.43356 7.41897C1.75147 7.6832 2.2021 7.67911 2.5556 7.40766L3.30168 6.83052C3.42243 6.73752 3.57876 6.73721 3.69981 6.83052L4.44706 7.40861C4.62585 7.54559 4.82972 7.61439 5.02864 7.61439C5.22231 7.61439 5.41131 7.54936 5.56793 7.41929C5.86922 7.1692 5.97131 6.74318 5.82897 6.33695C5.72251 6.02528 5.62131 5.71613 5.5236 5.40886C5.47606 5.25994 5.51922 5.09971 5.63035 5.01017C5.86514 4.82135 6.10022 4.63033 6.33881 4.43303C6.67131 4.1531 6.79556 3.67523 6.64768 3.24418L6.64681 3.24355Z" fill="black"/>
<path d="M6.64681 3.24355C6.51118 2.84832 6.19356 2.61551 5.81089 2.63248C5.51864 2.64253 5.2261 2.65101 4.93414 2.6573C4.80435 2.66923 4.68156 2.56807 4.64131 2.42857C4.55468 2.12696 4.46776 1.82567 4.37939 1.52468C4.26039 1.11594 3.91535 0.851715 3.5006 0.851715C3.08585 0.851715 2.74081 1.11594 2.62181 1.52437C2.53314 1.82535 2.44622 2.12665 2.35989 2.42826C2.31964 2.56807 2.20239 2.66986 2.06706 2.6573C1.77481 2.65101 1.48226 2.64284 1.19322 2.63279C0.810847 2.61645 0.489139 2.84894 0.353805 3.24387C0.20593 3.67492 0.33018 4.15278 0.664722 4.43428C0.901555 4.63002 1.13635 4.82104 1.37085 5.00954C1.48226 5.09908 1.52514 5.25932 1.47789 5.40855C1.38047 5.71613 1.27868 6.02497 1.17339 6.33412C1.02989 6.74286 1.13197 7.16889 1.43356 7.41897C1.75147 7.6832 2.2021 7.67911 2.5556 7.40766L3.30168 6.83052C3.42243 6.73752 3.57876 6.73721 3.69981 6.83052L4.44706 7.40861C4.62585 7.54559 4.82972 7.61439 5.02864 7.61439C5.22231 7.61439 5.41131 7.54936 5.56793 7.41929C5.86922 7.1692 5.97131 6.74318 5.82897 6.33695C5.72251 6.02528 5.62131 5.71613 5.5236 5.40886C5.47606 5.25994 5.51922 5.09971 5.63035 5.01017C5.86514 4.82135 6.10022 4.63033 6.33881 4.43303C6.67131 4.1531 6.79556 3.67523 6.64768 3.24418L6.64681 3.24355Z" fill="#7B7B7B"/>
</svg>
