<svg width="65" height="66" viewBox="0 0 65 66" fill="none" xmlns="http://www.w3.org/2000/svg">
<rect x="0.534668" y="1.18978" width="63.6204" height="63.6204" rx="14.5" fill="url(#paint0_linear_607_562)"/>
<rect x="0.534668" y="1.18978" width="63.6204" height="63.6204" rx="14.5" stroke="#6E4141"/>
<path d="M39.0132 25.9916C40.0235 24.9814 41.6693 24.9821 42.6802 25.9916L44.1401 27.4516C44.6307 27.9422 44.8999 28.5928 44.8999 29.2866C44.8998 29.9801 44.6306 30.6292 44.1392 31.1196L44.1372 31.1215L43.9995 31.2602C43.7853 31.4745 43.6623 31.8345 43.8179 32.1713V32.1723C44.9321 34.5894 45.1958 37.2661 44.5757 39.9184C43.567 44.236 40.0347 47.7168 35.7222 48.6909L35.3022 48.7778C34.5756 48.9136 33.8491 48.9811 33.1343 48.9887H33.0054C29.8643 48.9887 26.902 47.7768 24.6323 45.5073C21.8192 42.6929 20.6284 38.8078 21.3687 34.8354C22.2068 30.3376 25.7678 26.6094 30.2192 25.5668H30.2202C32.8676 24.9443 35.541 25.2069 37.9585 26.3159C38.2859 26.4675 38.6482 26.3566 38.8677 26.1372L39.0132 25.9916ZM21.3179 17.0082C21.6694 17.0082 21.9812 17.2172 22.1187 17.5307L22.1665 17.6713L22.6538 19.6215L22.7261 19.9125L23.0171 19.9858L24.9673 20.4721C25.356 20.5691 25.6294 20.9187 25.6294 21.3207C25.6294 21.6727 25.4198 21.9842 25.1069 22.1215L24.9673 22.1694L23.0171 22.6557L22.7261 22.729L22.6538 23.02L22.1665 24.9702C22.0693 25.3595 21.7191 25.6332 21.3179 25.6332C20.9159 25.6332 20.5662 25.3598 20.4692 24.9711L19.979 23.0053L19.9077 22.7202L19.6235 22.643L17.6528 22.1127H17.6538C17.2654 22.0075 16.9985 21.6529 17.0054 21.2514C17.0124 20.8505 17.292 20.5058 17.6831 20.4155H17.6841L19.6128 19.9692L19.9106 19.9008L19.9858 19.604L20.4692 17.6704C20.5662 17.2817 20.9159 17.0083 21.3179 17.0082ZM41.3491 17.0317C43.2589 16.9717 45.1178 17.7096 46.4751 19.0668C47.2557 19.8475 47.684 20.8825 47.6841 21.9858C47.6841 23.0891 47.2556 24.124 46.4751 24.9047C46.3043 25.0755 46.0805 25.1616 45.856 25.1616C45.6316 25.1615 45.4085 25.0754 45.2378 24.9047C44.8957 24.5624 44.8957 24.0107 45.2378 23.6684V23.6674C46.1641 22.7394 46.1641 21.2332 45.2378 20.3051V20.3041L45.0435 20.1196C44.1169 19.2837 42.922 18.8019 41.6763 18.7797L41.4087 18.7817C34.5585 19.0154 29.1461 20.0807 29.0757 20.0952C28.6076 20.1893 28.1426 19.8812 28.0493 19.4086V19.4067C27.9543 18.9343 28.2608 18.4739 28.7349 18.3793C28.9476 18.3368 34.3367 17.272 41.3501 17.0327L41.3491 17.0317Z" fill="url(#paint1_linear_607_562)" stroke="#824D4D"/>
<defs>
<linearGradient id="paint0_linear_607_562" x1="0.0346685" y1="33" x2="64.6551" y2="33" gradientUnits="userSpaceOnUse">
<stop stop-color="#4B2E2E"/>
<stop offset="1" stop-color="#633A3A"/>
</linearGradient>
<linearGradient id="paint1_linear_607_562" x1="16.5054" y1="33" x2="48.1842" y2="33" gradientUnits="userSpaceOnUse">
<stop stop-color="#704444"/>
<stop offset="1" stop-color="#814D4D"/>
</linearGradient>
</defs>
</svg>
