<svg width="65" height="66" viewBox="0 0 65 66" fill="none" xmlns="http://www.w3.org/2000/svg">
<rect x="0.844971" y="1.18978" width="63.6204" height="63.6204" rx="14.5" fill="url(#paint0_linear_607_560)"/>
<rect x="0.844971" y="1.18978" width="63.6204" height="63.6204" rx="14.5" stroke="url(#paint1_linear_607_560)"/>
<path d="M32.6543 17C34.5743 17 36.1498 18.1525 36.6953 19.9307L36.6963 19.9316L38.042 24.3398C38.3014 25.193 39.1051 25.8731 40.0361 25.8096L40.0371 25.8105C41.5407 25.7798 43.0473 25.7386 44.5518 25.6895H44.5566C46.2932 25.6166 47.7356 26.6061 48.3633 28.3418L48.3916 28.4209C49.0394 30.3086 48.455 32.3727 46.9375 33.585C45.7141 34.545 44.5086 35.4751 43.3037 36.3945H43.3027C42.5949 36.9358 42.3128 37.8593 42.5332 38.7246L42.584 38.8975C43.0873 40.3992 43.6084 41.911 44.1572 43.4355L44.1592 43.4395C44.7822 45.1268 44.395 46.8522 43.2217 47.9453L42.9766 48.1553C42.2632 48.7174 41.4012 48.9999 40.5127 49C39.6 49 38.6535 48.701 37.8164 48.0928H37.8174L33.9746 45.2715H33.9736C33.175 44.6874 32.1331 44.6898 31.3369 45.2715H31.3359L27.5 48.0869C25.8438 49.2937 23.7746 49.2894 22.334 48.1533L22.0889 47.9434C20.9148 46.8506 20.5265 45.1252 21.1553 43.4258L21.1572 43.4219C21.6998 41.9102 22.2243 40.3992 22.7266 38.8945C23.0311 37.9819 22.7628 36.9696 22.0049 36.3916C20.8015 35.4736 19.5968 34.5436 18.3818 33.5908H18.3828C16.8343 32.3543 16.2529 30.2499 16.9424 28.3428C17.5676 26.6117 19.0297 25.6199 20.7686 25.6904H20.7725C22.2609 25.7396 23.7676 25.7798 25.2725 25.8105V25.8096C26.1762 25.8729 26.911 25.2711 27.2119 24.4971L27.2666 24.3379C27.7104 22.8668 28.1569 21.3975 28.6123 19.9307L28.6133 19.9287C29.1589 18.1524 30.7344 17 32.6543 17Z" fill="url(#paint2_linear_607_560)" stroke="url(#paint3_linear_607_560)"/>
<defs>
<linearGradient id="paint0_linear_607_560" x1="0.344971" y1="33" x2="64.9654" y2="33" gradientUnits="userSpaceOnUse">
<stop stop-color="#353030"/>
<stop offset="1" stop-color="#464242"/>
</linearGradient>
<linearGradient id="paint1_linear_607_560" x1="0.500244" y1="32.6898" x2="64.5002" y2="32.6898" gradientUnits="userSpaceOnUse">
<stop stop-color="#5E5757"/>
<stop offset="1" stop-color="#534E4E"/>
</linearGradient>
<linearGradient id="paint2_linear_607_560" x1="16.1553" y1="33" x2="49.1553" y2="33" gradientUnits="userSpaceOnUse">
<stop stop-color="#4C4747"/>
<stop offset="1" stop-color="#656262"/>
</linearGradient>
<linearGradient id="paint3_linear_607_560" x1="16.2346" y1="32.8416" x2="48.9177" y2="32.8416" gradientUnits="userSpaceOnUse">
<stop stop-color="#5E5757"/>
<stop offset="1" stop-color="#696262"/>
</linearGradient>
</defs>
</svg>
