<svg width="12" height="12" viewBox="0 0 12 12" fill="none" xmlns="http://www.w3.org/2000/svg">
<path d="M5.70264 0.74115C6.45452 0.741344 7.06396 1.35153 7.06396 2.10345V4.82611H9.7876C10.5396 4.82615 11.1489 5.43639 11.1489 6.18842C11.1488 6.94036 10.5396 7.54971 9.7876 7.54974H7.06396V10.2734C7.06396 11.0253 6.45452 11.6345 5.70264 11.6347C4.95059 11.6347 4.34034 11.0254 4.34033 10.2734V7.54974H1.61768C0.865687 7.54974 0.255466 6.94038 0.255371 6.18842C0.255371 5.43637 0.865628 4.82611 1.61768 4.82611H4.34033V2.10345C4.34033 1.35141 4.95059 0.74115 5.70264 0.74115Z" fill="#7B7B7B"/>
</svg>
