<svg width="22" height="11" viewBox="0 0 22 11" fill="none" xmlns="http://www.w3.org/2000/svg">
<path d="M21.3194 6.43379C20.8049 6.17545 20.1851 6.3817 19.9246 6.89004C19.7955 6.30462 19.6309 5.72129 19.433 5.14316C18.8111 3.32337 17.3361 1.87337 15.4882 1.26608C12.1392 0.16191 8.73819 0.160868 5.38506 1.26608C3.53715 1.87441 2.06215 3.32441 1.44027 5.14316C1.27465 5.62754 1.13402 6.11191 1.01631 6.59629C0.880896 7.15566 1.22465 7.71816 1.78298 7.85358C2.34131 7.99108 2.90485 7.64629 3.04027 7.08691C3.1434 6.66399 3.26631 6.24108 3.4111 5.81712C3.8236 4.61191 4.80381 3.65045 6.0361 3.24524C8.9559 2.28274 11.9174 2.28379 14.8371 3.24524C16.0694 3.65045 17.0496 4.61191 17.4621 5.81816C17.5934 6.20149 17.7069 6.58587 17.8038 6.97129C17.4236 6.6442 16.8507 6.62858 16.4538 6.96504C16.0142 7.33483 15.9569 7.99212 16.3288 8.43274C17.1569 9.41608 17.5892 9.74941 18.7621 10.3088C18.9049 10.3765 19.058 10.4109 19.2111 10.4109C19.4403 10.4109 19.6674 10.3348 19.8549 10.188C20.8684 9.39108 21.2111 8.97233 21.784 7.8317C22.0424 7.31712 21.8351 6.69212 21.3215 6.43379H21.3194Z" fill="white" fill-opacity="0.9"/>
</svg>
