<svg width="21" height="21" viewBox="0 0 21 21" fill="none" xmlns="http://www.w3.org/2000/svg">
<path d="M5.67398 8.20984C5.52731 8.20984 5.38065 8.16317 5.25731 8.07151C5.02148 7.89484 4.92315 7.58817 5.01148 7.30734L5.66481 5.21317L4.01398 3.86984C3.79148 3.6815 3.71065 3.37484 3.81148 3.1015C3.91148 2.82817 4.17231 2.6465 4.46315 2.6465H6.54731L7.28481 0.577338C7.38565 0.305671 7.64565 0.125671 7.93565 0.125671C8.22565 0.125671 8.48565 0.305671 8.58648 0.577338L9.32398 2.6465H11.4081C11.6998 2.6465 11.9606 2.829 12.0606 3.10317C12.1606 3.37734 12.079 3.68484 11.8556 3.87234L10.2131 5.21067L10.8923 7.28067C10.9848 7.56067 10.8906 7.86901 10.6573 8.04901C10.4231 8.22901 10.1015 8.24151 9.85398 8.08067L7.94148 6.83484L6.06065 8.09317C5.94398 8.1715 5.80898 8.21067 5.67481 8.21067L5.67398 8.20984ZM19.8831 10.4115L13.4648 17.419C11.8865 19.1423 9.65648 20.124 7.31981 20.124H3.76815C1.92731 20.124 0.434814 18.6315 0.434814 16.7907V12.624C0.434814 10.7832 1.92731 9.29067 3.76815 9.29067H10.2573C11.4023 9.29067 12.3073 10.3407 12.0606 11.5282C11.8998 12.2998 11.224 12.8598 10.444 12.9715L6.97565 13.4573C6.51981 13.5223 6.20315 13.9448 6.26898 14.3998C6.33398 14.8557 6.75648 15.1715 7.21148 15.1065L10.7548 14.6098C12.4731 14.3648 13.769 12.8707 13.769 11.1348C13.769 10.9523 13.7423 10.7773 13.7148 10.6032L16.6656 7.48901C17.0448 7.07234 17.5798 6.81984 18.1606 6.79317C18.7373 6.76484 19.2965 6.96734 19.7256 7.35817C20.6023 8.1565 20.674 9.52567 19.8831 10.4115Z" fill="white" fill-opacity="0.9"/>
</svg>
