<svg width="22" height="11" viewBox="0 0 22 11" fill="none" xmlns="http://www.w3.org/2000/svg">
<path d="M21.0851 3.39521C20.5257 3.25771 19.9632 3.60562 19.8288 4.165C19.7278 4.58687 19.6049 5.00979 19.4601 5.4327C19.0476 6.63791 18.0674 7.59937 16.8351 8.00458C13.9132 8.96812 10.9538 8.96708 8.03402 8.00458C6.80173 7.59833 5.82048 6.63791 5.40902 5.4327C5.27777 5.04937 5.16423 4.66396 5.0684 4.27854C5.44861 4.60666 6.02152 4.61812 6.41736 4.28479C6.85694 3.915 6.91423 3.25771 6.5434 2.81708C5.71527 1.83375 5.28298 1.50041 4.11006 0.941039C3.75381 0.771247 3.32986 0.817079 3.01736 1.06187C2.00381 1.85979 1.66111 2.2775 1.08819 3.41812C0.829856 3.9327 1.03715 4.5577 1.55173 4.81604C1.70173 4.89104 1.86111 4.92646 2.0184 4.92646C2.39756 4.92646 2.76319 4.71916 2.94652 4.35875C3.07569 4.94312 3.23923 5.52645 3.43819 6.10562C4.06006 7.92541 5.53506 9.37437 7.38298 9.98271C9.05902 10.5348 10.7476 10.8108 12.4361 10.8108C14.1246 10.8108 15.8121 10.5348 17.4882 9.98271C19.3361 9.37437 20.8111 7.92437 21.433 6.10666C21.5976 5.62437 21.7413 5.13375 21.8569 4.65041C21.9913 4.09104 21.6465 3.52854 21.0871 3.39416L21.0851 3.39521Z" fill="white" fill-opacity="0.9"/>
</svg>
