<svg width="29" height="31" viewBox="0 0 29 31" fill="none" xmlns="http://www.w3.org/2000/svg">
<path d="M21.4358 15.5575C21.4358 14.0807 21.0252 12.6371 20.2561 11.4092C19.4869 10.1813 18.3937 9.2243 17.1146 8.65917C15.8355 8.09403 14.428 7.94617 13.0702 8.23427C11.7123 8.52237 10.465 9.23351 9.48605 10.2777C8.50708 11.322 7.84039 12.6524 7.5703 14.1008C7.3002 15.5492 7.43882 17.0505 7.96864 18.4148C8.49845 19.7792 9.39566 20.9453 10.5468 21.7658C11.6979 22.5862 13.0513 23.0241 14.4358 23.0241C16.2917 23.0222 18.0711 22.2349 19.3835 20.835C20.6958 19.4352 21.4339 17.5371 21.4358 15.5575ZM17.5053 16.9363L15.2968 20.076C15.1966 20.2187 15.0666 20.3346 14.9172 20.4143C14.7677 20.4941 14.6029 20.5357 14.4358 20.5357C14.2687 20.5357 14.1038 20.4941 13.9544 20.4143C13.8049 20.3346 13.675 20.2187 13.5748 20.076L11.3663 16.9363C11.0868 16.5384 10.9358 16.0546 10.9358 15.5575C10.9358 15.0603 11.0868 14.5765 11.3663 14.1786L13.5748 11.0389C13.675 10.8962 13.8049 10.7804 13.9544 10.7006C14.1038 10.6208 14.2687 10.5793 14.4358 10.5793C14.6029 10.5793 14.7677 10.6208 14.9172 10.7006C15.0666 10.7804 15.1966 10.8962 15.2968 11.0389L17.5053 14.1786C17.7847 14.5765 17.9358 15.0603 17.9358 15.5575C17.9358 16.0546 17.7847 16.5384 17.5053 16.9363ZM11.595 0.934001C13.469 0.52086 15.4025 0.52086 17.2766 0.934001L16.2406 4.73827C16.1702 5.00784 16.0151 5.24339 15.8011 5.4054C15.5872 5.56741 15.3276 5.64602 15.0658 5.62805C14.8581 5.61187 14.6481 5.60191 14.4358 5.60191C14.2235 5.60191 14.0135 5.61187 13.8058 5.62805C13.544 5.64578 13.2845 5.56708 13.0706 5.40511C12.8568 5.24313 12.7016 5.00772 12.631 4.73827L11.595 0.934001ZM18.4713 5.46876L19.5096 1.65453C21.3134 2.4083 22.9516 3.55165 24.3214 5.0128C25.6912 6.47396 26.7631 8.22138 27.4698 10.1454L23.894 11.2529C23.6471 11.332 23.3824 11.3201 23.1427 11.2192C22.9029 11.1183 22.7019 10.9342 22.5721 10.6967C21.7294 9.09834 20.4912 7.77764 18.9928 6.87871C18.7701 6.74027 18.5975 6.52591 18.5029 6.27014C18.4083 6.01438 18.3972 5.7321 18.4713 5.46876ZM23.7446 14.8855C23.7278 14.6062 23.8015 14.3293 23.9534 14.1011C24.1052 13.8729 24.3261 13.7074 24.5788 13.6323L28.1453 12.5272C28.5326 14.5263 28.5326 16.5887 28.1453 18.5877L24.5788 17.4826C24.3261 17.4075 24.1052 17.242 23.9534 17.0138C23.8015 16.7857 23.7278 16.5087 23.7446 16.2295C23.7598 16.008 23.7691 15.784 23.7691 15.5575C23.7691 15.331 23.7598 15.107 23.7446 14.8855ZM4.97879 11.1857L1.45896 9.97862C2.17733 8.09143 3.24854 6.38009 4.60727 4.94896C5.96601 3.51783 7.58379 2.3969 9.36196 1.65453L10.4003 5.46876C10.4744 5.73242 10.4631 6.015 10.3683 6.27099C10.2735 6.52698 10.1006 6.74148 9.87763 6.87996C8.39776 7.76854 7.17161 9.0687 6.32979 10.6419C6.19667 10.8835 5.99004 11.0692 5.74425 11.1681C5.49847 11.267 5.22835 11.2733 4.97879 11.1857ZM17.4365 30.1361C15.4606 30.609 13.411 30.609 11.4351 30.1361L12.5785 26.3393C12.6539 26.0771 12.8102 25.8497 13.0219 25.6941C13.2337 25.5384 13.4885 25.4637 13.7451 25.4819C13.9785 25.5018 14.2036 25.513 14.4358 25.513C14.668 25.513 14.9025 25.5018 15.1265 25.4819C15.3831 25.4637 15.6379 25.5384 15.8497 25.6941C16.0614 25.8497 16.2177 26.0771 16.2931 26.3393L17.4365 30.1361ZM5.13163 16.2942C5.14872 16.5679 5.07863 16.8397 4.93272 17.0656C4.78682 17.2915 4.57365 17.4582 4.32779 17.5386L0.768293 18.7582C0.324957 16.6506 0.324957 14.4644 0.768293 12.3568L4.32779 13.5763C4.57365 13.6568 4.78682 13.8234 4.93272 14.0493C5.07863 14.2752 5.14872 14.5471 5.13163 14.8208C5.11296 15.0597 5.10246 15.3086 5.10246 15.5575C5.10246 15.8064 5.11296 16.0552 5.13163 16.2942ZM23.894 19.862L27.4698 20.9696C26.7738 22.8663 25.723 24.5919 24.3813 26.0412C23.0396 27.4905 21.4352 28.6332 19.666 29.3994L18.5343 25.6449C18.4516 25.3788 18.4571 25.0904 18.5499 24.8281C18.6427 24.5657 18.8172 24.3454 19.0441 24.2039C20.5193 23.306 21.7386 21.9981 22.5721 20.4195C22.7016 20.1816 22.9025 19.9971 23.1423 19.896C23.3821 19.7948 23.647 19.7829 23.894 19.862ZM10.3373 25.6449L9.20563 29.3994C7.4619 28.6448 5.87783 27.5246 4.54721 26.1053C3.21658 24.686 2.16644 22.9963 1.45896 21.1363L4.97879 19.9292C5.22844 19.8411 5.49889 19.8471 5.74485 19.9464C5.9908 20.0456 6.19732 20.232 6.32979 20.4743C7.16259 22.0301 8.37122 23.3193 9.82979 24.2076C10.0553 24.3497 10.2285 24.5696 10.3208 24.831C10.413 25.0924 10.4189 25.3795 10.3373 25.6449Z" fill="white" fill-opacity="0.9"/>
</svg>
